<?xml version="1.0" encoding="UTF-8"?>
<svg width="325px" height="185px" viewBox="0 0 325 185" version="1.1" xmlns="http://www.w3.org/2000/svg" xmlns:xlink="http://www.w3.org/1999/xlink">
    <!-- Generator: Sketch 61 (89581) - https://sketch.com -->
    <title>contact_illustration</title>
    <desc>Created with Sketch.</desc>
    <g id="Assets" stroke="none" stroke-width="1" fill="none" fill-rule="evenodd">
        <g id="Artboard" transform="translate(-1125.000000, -124.000000)">
            <g id="Group-26" transform="translate(1112.000000, 113.000000)">
                <path d="M64,127.5 C87.460686,176.36369 111.794019,198.86369 137,195 C174.808971,189.204464 171,150 206.5,132.5 C230.166667,120.833333 257.166667,121.5 287.5,134.5" id="Path-6" stroke="#D8D8D8" stroke-dasharray="8"></path>
                <g id="Group-33" transform="translate(258.000000, 114.000000)">
                    <polyline id="Fill-98" fill="#FEB573" points="14.9342857 25.9171429 22.2578571 33.7714286 78.0807143 10.4878571 14.9342857 25.9171429"></polyline>
                    <polyline id="Fill-99" fill="#FCD3A3" points="17.5385714 -2.0301221e-14 12.025 8.31785714 15.7528571 16.4692857 7.39 17.8914286 4.0602442e-14 34.115 79.8721429 9.94571429 17.5385714 -2.0301221e-14"></polyline>
                    <polyline id="Fill-100" fill="#FEB573" points="15.7528571 16.4692857 12.025 8.31785714 55.2878571 10.3407143 15.7528571 16.4692857"></polyline>
                </g>
                <g id="Group-25" transform="translate(94.500000, 91.500000) rotate(-8.000000) translate(-94.500000, -91.500000) translate(11.000000, 11.000000)" fill-rule="nonzero">
                    <path d="M117.191182,157.19053 L10.1846417,102.16644 C2.87740951,98.4089681 -0.000243460141,89.4392558 3.75722166,82.1320201 L28.9665417,33.1069101 C29.7063827,31.6681191 31.0051247,30.596704 32.5583117,30.1438301 L116.899902,5.5515501 C123.902217,3.50980957 131.278257,7.30266064 133.691252,14.1858701 L161.402392,93.2332301 C162.801412,97.2239875 162.498492,101.614369 160.564642,105.37517 L137.225642,150.7631 C135.421244,154.272171 132.296773,156.920723 128.53958,158.1261 C124.782388,159.331478 120.700245,158.994943 117.191182,157.19053 L117.191182,157.19053 Z" id="Path" fill="#F2F2F2"></path>
                    <path d="M121.442472,137.76056 L13.3974717,91.6340001 C9.91613166,89.8438501 13.1804717,92.5954901 14.9706117,89.1141501 L28.5526117,33.9118801 L160.908752,101.97105 L127.447582,143.34505 C125.657442,146.82638 124.923812,139.55071 121.442472,137.76056 Z" id="Path" fill="#000000" opacity="0.1"></path>
                    <rect id="Rectangle" fill="#FFD1A7" transform="translate(91.501759, 75.246440) rotate(-62.787210) translate(-91.501759, -75.246440) " x="36.1597236" y="19.904405" width="110.68407" height="110.68407" rx="8.18596"></rect>
                    <polygon id="Path" fill="#000000" opacity="0.1" points="143.227312 95.6738401 115.410312 149.77084 16.9773117 99.1548401 44.7943117 45.0588401 81.7793117 94.1548401"></polygon>
                    <path d="M80.2062217,97.2131101 L32.8173317,34.3058001 C32.2214917,33.5148421 31.2607618,33.0858956 30.2740923,33.1702952 C29.2874229,33.2546948 28.4135013,33.8405772 27.9606517,34.7212401 L0.994371664,87.1631501 C-0.0951876907,89.2820358 -0.298396323,91.7469636 0.429449447,94.0156762 C1.15729522,96.2843888 2.7565739,98.1710447 4.87546166,99.2606001 L122.365292,159.67533 C124.484177,160.764889 126.949105,160.968098 129.217818,160.240252 C131.48653,159.512407 133.373186,157.913128 134.462742,155.79424 L160.967122,104.2507 C161.519721,103.176055 161.480825,101.892751 160.864155,100.853546 C160.247485,99.8143408 159.139721,99.1653079 157.931692,99.1354301 L80.2062217,97.2131101 Z" id="Path" fill="#F2F2F2"></path>
                    <rect id="Rectangle" fill="#F2F2F2" transform="translate(84.189970, 23.144111) rotate(27.212790) translate(-84.189970, -23.144111) " x="68.71296" y="20.9554413" width="30.95402" height="4.37734"></rect>
                    <rect id="Rectangle" fill="#F2F2F2" transform="translate(102.213152, 49.287792) rotate(27.212790) translate(-102.213152, -49.287792) " x="56.251122" y="48.0371271" width="91.92406" height="2.50133"></rect>
                    <rect id="Rectangle" fill="#F2F2F2" transform="translate(98.352655, 56.795385) rotate(27.212790) translate(-98.352655, -56.795385) " x="52.3906252" y="55.5447202" width="91.92406" height="2.50133"></rect>
                    <rect id="Rectangle" fill="#F2F2F2" transform="translate(94.492153, 64.302980) rotate(27.212790) translate(-94.492153, -64.302980) " x="48.5301229" y="63.0523145" width="91.92406" height="2.50133"></rect>
                </g>
            </g>
        </g>
    </g>
</svg>