<?xml version="1.0" encoding="UTF-8"?>
<svg width="24px" height="24px" viewBox="0 0 24 24" version="1.1" xmlns="http://www.w3.org/2000/svg" xmlns:xlink="http://www.w3.org/1999/xlink">
    <!-- Generator: Sketch 61 (89581) - https://sketch.com -->
    <title>ic_availability</title>
    <desc>Created with Sketch.</desc>
    <g id="Assets" stroke="none" stroke-width="1" fill="none" fill-rule="evenodd">
        <g id="Artboard" transform="translate(-576.000000, -24.000000)" fill="#FF7A01" fill-rule="nonzero" stroke="#FF7A01" stroke-width="0.4">
            <g id="database" transform="translate(581.000000, 28.000000)">
                <path d="M14.81,2.47563636 C14.4694118,1.22763636 11.9344118,0 7.5,0 C3.06558824,0 0.530294118,1.22763636 0.19,2.47563636 C0.165294118,2.5184 0.147058824,2.56523636 0.147058824,2.61818182 L0.147058824,2.76363636 L0.147058824,6.10909091 L0.147058824,6.25454545 L0.147058824,6.4 L0.147058824,9.6 L0.147058824,9.74545455 L0.147058824,9.89090909 L0.147058824,13.3818182 C0.147058824,13.4289455 0.159705882,13.4734545 0.181470588,13.5130182 C0.528823529,14.9370182 3.63647059,16 7.5,16 C11.3547059,16 14.4573529,14.9413818 14.8161765,13.5226182 C14.8397059,13.4810182 14.8529412,13.4330182 14.8529412,13.3818182 L14.8529412,9.89090909 L14.8529412,9.74545455 L14.8529412,9.6 L14.8529412,6.4 L14.8529412,6.25454545 L14.8529412,6.10909091 L14.8529412,2.76363636 L14.8529412,2.61818182 C14.8529412,2.56523636 14.8347059,2.5184 14.81,2.47563636 Z M14.2414706,9.88654545 C14.2332353,9.92174545 14.2217647,9.95665455 14.2073529,9.99214545 C14.1955882,10.0209455 14.1811765,10.0497455 14.1652941,10.0785455 C14.1455882,10.1143273 14.1235294,10.1501091 14.0973529,10.1858909 C14.0779412,10.2129455 14.0558824,10.2397091 14.0329412,10.2664727 C14.0002941,10.3045818 13.9655882,10.3426909 13.9261765,10.3805091 C13.9023529,10.4034909 13.8761765,10.4261818 13.8497059,10.4491636 C13.8014706,10.4907636 13.7511765,10.5320727 13.695,10.5730909 C13.6708824,10.5908364 13.645,10.608 13.6194118,10.6254545 C13.5529412,10.6708364 13.4835294,10.7159273 13.4073529,10.7601455 C13.3873529,10.7720727 13.3658824,10.7834182 13.345,10.7950545 C13.2573529,10.8439273 13.1658824,10.8925091 13.0670588,10.9396364 C13.0544118,10.9457455 13.0411765,10.9515636 13.0282353,10.9573818 C12.9179412,11.0088727 12.8026471,11.0594909 12.6794118,11.1083636 C12.6758824,11.1098182 12.6723529,11.1109818 12.6688235,11.1124364 C12.0008824,11.3762909 11.1464706,11.5982545 10.1508824,11.7437091 C10.1458824,11.7442909 10.1408824,11.7448727 10.1358824,11.7457455 C9.94235294,11.7739636 9.74382353,11.7989818 9.54,11.8210909 C9.50676471,11.8245818 9.47176471,11.8269091 9.43823529,11.8304 C9.26029412,11.8487273 9.08029412,11.8656 8.895,11.8789818 C8.81029412,11.8850909 8.72147059,11.888 8.63529412,11.8932364 C8.49588235,11.9013818 8.35794118,11.9104 8.215,11.9153455 C7.98147059,11.9226182 7.74323529,11.9272727 7.5,11.9272727 C7.25676471,11.9272727 7.01852941,11.9226182 6.78470588,11.9144727 C6.64176471,11.9095273 6.50382353,11.9002182 6.36441176,11.8923636 C6.27823529,11.8874182 6.18941176,11.8842182 6.10470588,11.8781091 C5.91941176,11.8647273 5.73941176,11.8478545 5.56147059,11.8295273 C5.52794118,11.8260364 5.49294118,11.8237091 5.45970588,11.8202182 C5.25588235,11.7981091 5.05735294,11.7728 4.86382353,11.7448727 C4.85882353,11.7442909 4.85382353,11.7437091 4.84882353,11.7428364 C3.85323529,11.5973818 2.99882353,11.3754182 2.33088235,11.1115636 C2.32735294,11.1104 2.32382353,11.1089455 2.32029412,11.1074909 C2.19705882,11.0586182 2.08147059,11.008 1.97147059,10.9565091 C1.95882353,10.9504 1.94529412,10.9445818 1.93264706,10.9387636 C1.83382353,10.8916364 1.74235294,10.8433455 1.65470588,10.7941818 C1.63411765,10.7825455 1.61235294,10.7712 1.59235294,10.7592727 C1.51617647,10.7150545 1.44676471,10.6699636 1.38029412,10.6245818 C1.355,10.6071273 1.32882353,10.5899636 1.30470588,10.5722182 C1.24852941,10.5312 1.19823529,10.4898909 1.15,10.4482909 C1.12382353,10.4256 1.09735294,10.4029091 1.07352941,10.3796364 C1.03411765,10.3418182 0.999411765,10.304 0.966764706,10.2656 C0.943823529,10.2388364 0.921764706,10.2120727 0.902352941,10.1850182 C0.876470588,10.1492364 0.854411765,10.1134545 0.834411765,10.0776727 C0.818529412,10.0488727 0.804411765,10.0200727 0.792352941,9.99127273 C0.777941176,9.95607273 0.766470588,9.92087273 0.758235294,9.88567273 C0.747352941,9.83941818 0.735294118,9.79229091 0.735294118,9.74545455 C0.735294118,9.71258182 0.739117647,9.67970909 0.744411765,9.64712727 C0.751764706,9.6032 0.747647059,9.55927273 0.735294118,9.51767273 L0.735294118,7.35796364 C0.743529412,7.36552727 0.753823529,7.3728 0.762352941,7.38036364 C0.826470588,7.43621818 0.891764706,7.49178182 0.965294118,7.54530909 C2.07323529,8.37410909 4.28882353,9.01818182 7.5,9.01818182 C10.6976471,9.01818182 12.9076471,8.37934545 14.0202941,7.55549091 C14.1091176,7.49149091 14.1891176,7.42545455 14.2644118,7.35825455 L14.2647059,7.35796364 L14.2647059,9.51767273 C14.2523529,9.55927273 14.2482353,9.6032 14.2555882,9.64712727 C14.2611765,9.67970909 14.2647059,9.71258182 14.2647059,9.74545455 C14.2647059,9.79229091 14.2526471,9.83941818 14.2414706,9.88654545 Z M14.2647059,3.86705455 L14.2647059,6.02676364 C14.2523529,6.06836364 14.2482353,6.11229091 14.2555882,6.15621818 C14.2611765,6.1888 14.2647059,6.22167273 14.2647059,6.25454545 C14.2647059,6.30138182 14.2526471,6.34850909 14.2414706,6.39563636 C14.2332353,6.43083636 14.2217647,6.46574545 14.2073529,6.50123636 C14.1955882,6.53003636 14.1811765,6.55883636 14.1652941,6.58763636 C14.1455882,6.62341818 14.1235294,6.6592 14.0973529,6.69498182 C14.0779412,6.72203636 14.0558824,6.7488 14.0329412,6.77556364 C14.0002941,6.81367273 13.9655882,6.85178182 13.9261765,6.8896 C13.9023529,6.91258182 13.8761765,6.93527273 13.8497059,6.95825455 C13.8014706,6.99985455 13.7511765,7.04116364 13.695,7.08218182 C13.6708824,7.09992727 13.645,7.11709091 13.6194118,7.13454545 C13.5529412,7.17992727 13.4835294,7.22501818 13.4073529,7.26923636 C13.3873529,7.28116364 13.3658824,7.29250909 13.345,7.30414545 C13.2573529,7.35301818 13.1658824,7.4016 13.0670588,7.44872727 C13.0544118,7.45483636 13.0411765,7.46065455 13.0282353,7.46647273 C12.9179412,7.51796364 12.8026471,7.56858182 12.6794118,7.61745455 C12.6758824,7.61890909 12.6723529,7.62007273 12.6688235,7.62152727 C12.0008824,7.88538182 11.1464706,8.10734545 10.1508824,8.2528 C10.1458824,8.25338182 10.1408824,8.25396364 10.1358824,8.25483636 C9.94235294,8.28305455 9.74382353,8.30807273 9.54,8.33018182 C9.50676471,8.33367273 9.47176471,8.336 9.43823529,8.33949091 C9.26029412,8.35781818 9.08029412,8.37469091 8.895,8.38807273 C8.81029412,8.39418182 8.72147059,8.39709091 8.63529412,8.40232727 C8.49588235,8.41047273 8.35794118,8.41949091 8.215,8.42443636 C7.98147059,8.43170909 7.74323529,8.43636364 7.5,8.43636364 C7.25676471,8.43636364 7.01852941,8.43170909 6.78470588,8.42356364 C6.64176471,8.41861818 6.50382353,8.40930909 6.36441176,8.40145455 C6.27823529,8.39650909 6.18941176,8.39330909 6.10470588,8.3872 C5.91941176,8.37381818 5.73941176,8.35694545 5.56147059,8.33861818 C5.52794118,8.33512727 5.49294118,8.3328 5.45970588,8.32930909 C5.25588235,8.3072 5.05735294,8.28189091 4.86382353,8.25396364 C4.85882353,8.25338182 4.85382353,8.2528 4.84882353,8.25192727 C3.85323529,8.10647273 2.99882353,7.88450909 2.33088235,7.62065455 C2.32735294,7.61949091 2.32382353,7.61803636 2.32029412,7.61658182 C2.19705882,7.56770909 2.08147059,7.51709091 1.97147059,7.4656 C1.95882353,7.45949091 1.94529412,7.45367273 1.93264706,7.44785455 C1.83382353,7.40072727 1.74235294,7.35243636 1.65470588,7.30327273 C1.63411765,7.29163636 1.61235294,7.28029091 1.59235294,7.26836364 C1.51617647,7.22414545 1.44676471,7.17905455 1.38029412,7.13367273 C1.355,7.11621818 1.32882353,7.09905455 1.30470588,7.08130909 C1.24852941,7.04029091 1.19823529,6.99898182 1.15,6.95738182 C1.12382353,6.93469091 1.09735294,6.912 1.07352941,6.88872727 C1.03411765,6.85090909 0.999411765,6.81309091 0.966764706,6.77469091 C0.943823529,6.74792727 0.921764706,6.72116364 0.902352941,6.69410909 C0.876470588,6.65832727 0.854411765,6.62254545 0.834411765,6.58676364 C0.818529412,6.55796364 0.804411765,6.52916364 0.792352941,6.50036364 C0.777941176,6.46516364 0.766470588,6.42996364 0.758235294,6.39476364 C0.747352941,6.34850909 0.735294118,6.30138182 0.735294118,6.25454545 C0.735294118,6.22167273 0.739117647,6.1888 0.744411765,6.15621818 C0.751764706,6.11229091 0.747647059,6.06836364 0.735294118,6.02676364 L0.735294118,3.86705455 C0.770588235,3.89876364 0.810882353,3.92989091 0.849117647,3.96130909 C0.870294118,3.97876364 0.89,3.99621818 0.912352941,4.01367273 C1.00058824,4.08232727 1.09588235,4.15010909 1.19911765,4.21614545 C1.22058824,4.22981818 1.24470588,4.2432 1.26705882,4.25687273 C1.35352941,4.31010909 1.445,4.36218182 1.54117647,4.41338182 C1.57676471,4.43229091 1.61235294,4.45090909 1.64911765,4.46952727 C1.75647059,4.52363636 1.86911765,4.57629091 1.98764706,4.6272 C2.00705882,4.63563636 2.02470588,4.64436364 2.04441176,4.65250909 C2.18235294,4.7104 2.32882353,4.76567273 2.48117647,4.8192 C2.52323529,4.83403636 2.56735294,4.848 2.61058824,4.86254545 C2.73176471,4.90298182 2.85705882,4.94167273 2.98676471,4.9792 C3.03352941,4.99258182 3.07941176,5.00654545 3.12735294,5.01934545 C3.29941176,5.06647273 3.47705882,5.11127273 3.66352941,5.15258182 C3.68911765,5.1584 3.71676471,5.16305455 3.74264706,5.16858182 C3.90705882,5.20407273 4.07764706,5.23694545 4.25294118,5.26778182 C4.31235294,5.27825455 4.37264706,5.28814545 4.43323529,5.29803636 C4.6,5.32509091 4.77176471,5.34981818 4.94794118,5.37250909 C4.99323529,5.37832727 5.03647059,5.38501818 5.08235294,5.39054545 C5.30117647,5.41672727 5.52764706,5.43912727 5.76029412,5.45832727 C5.81764706,5.46298182 5.87735294,5.46647273 5.93558824,5.47054545 C6.12176471,5.48392727 6.31205882,5.49498182 6.50676471,5.50370909 C6.57764706,5.50690909 6.64823529,5.51010909 6.72058824,5.51272727 C6.97411765,5.52116364 7.23235294,5.52727273 7.5,5.52727273 C7.76764706,5.52727273 8.02588235,5.52116364 8.27941176,5.51272727 C8.35147059,5.51010909 8.42205882,5.50690909 8.49323529,5.50370909 C8.68794118,5.49498182 8.87823529,5.48392727 9.06441176,5.47054545 C9.12264706,5.46618182 9.18205882,5.46298182 9.23970588,5.45832727 C9.47235294,5.43941818 9.69882353,5.41672727 9.91764706,5.39054545 C9.96352941,5.38501818 10.0067647,5.37832727 10.0520588,5.37250909 C10.2282353,5.34981818 10.3997059,5.32509091 10.5667647,5.29803636 C10.6273529,5.28814545 10.6876471,5.27825455 10.7470588,5.26778182 C10.9223529,5.23694545 11.0929412,5.20407273 11.2573529,5.16858182 C11.2832353,5.16305455 11.3108824,5.15810909 11.3364706,5.15258182 C11.5229412,5.11127273 11.7005882,5.06618182 11.8726471,5.01934545 C11.9205882,5.00625455 11.9664706,4.99258182 12.0132353,4.9792 C12.1429412,4.94167273 12.2682353,4.90298182 12.3894118,4.86254545 C12.4326471,4.848 12.4767647,4.83403636 12.5188235,4.8192 C12.6711765,4.76567273 12.8179412,4.7104 12.9555882,4.65250909 C12.9752941,4.64436364 12.9929412,4.63563636 13.0123529,4.6272 C13.1308824,4.576 13.2435294,4.52363636 13.3508824,4.46952727 C13.3876471,4.45090909 13.4235294,4.43229091 13.4588235,4.41338182 C13.555,4.36247273 13.6464706,4.3104 13.7329412,4.25687273 C13.7552941,4.2432 13.7794118,4.22981818 13.8008824,4.21614545 C13.9041176,4.15010909 13.9994118,4.08261818 14.0876471,4.01367273 C14.1097059,3.99621818 14.1294118,3.97876364 14.1508824,3.96130909 C14.1891176,3.92989091 14.2294118,3.89876364 14.2647059,3.86705455 Z M7.5,0.581818182 C11.4867647,0.581818182 14.2647059,1.73149091 14.2647059,2.76363636 C14.2647059,3.79578182 11.4867647,4.94545455 7.5,4.94545455 C3.51323529,4.94545455 0.735294118,3.79578182 0.735294118,2.76363636 C0.735294118,1.73149091 3.51323529,0.581818182 7.5,0.581818182 Z M14.2647059,13.2954182 C14.2605882,13.3082182 14.2576471,13.3213091 14.2552941,13.3346909 C14.0885294,14.3409455 11.3341176,15.4181818 7.5,15.4181818 C3.66588235,15.4181818 0.911470588,14.3409455 0.744705882,13.3346909 C0.742352941,13.3216 0.739117647,13.3088 0.735294118,13.2965818 L0.735294118,10.8488727 C0.743529412,10.8564364 0.753823529,10.8637091 0.762352941,10.8712727 C0.826470588,10.9271273 0.891764706,10.9826909 0.965294118,11.0362182 C2.07323529,11.8650182 4.28882353,12.5090909 7.5,12.5090909 C10.6976471,12.5090909 12.9076471,11.8702545 14.0202941,11.0464 C14.1091176,10.9824 14.1891176,10.9163636 14.2644118,10.8491636 L14.2647059,10.8488727 L14.2647059,13.2954182 Z" id="Shape"></path>
            </g>
        </g>
    </g>
</svg>