<?xml version="1.0" encoding="UTF-8"?>
<svg width="24px" height="24px" viewBox="0 0 24 24" version="1.1" xmlns="http://www.w3.org/2000/svg" xmlns:xlink="http://www.w3.org/1999/xlink">
    <!-- Generator: Sketch 61 (89581) - https://sketch.com -->
    <title>ic_application</title>
    <desc>Created with Sketch.</desc>
    <g id="Assets" stroke="none" stroke-width="1" fill="none" fill-rule="evenodd">
        <g id="Artboard" transform="translate(-528.000000, -24.000000)" fill="#FF7A01" fill-rule="nonzero" stroke="#FFFFFF" stroke-width="0.1">
            <g id="car-(4)" transform="translate(532.000000, 29.000000)">
                <path d="M14.585083,5.13004032 L13.0019531,1.19342239 C12.7104492,0.468498 12.0307617,0 11.2702637,0 L4.736084,0 C3.97680663,0 3.29736328,0.467489935 3.00537109,1.19102823 L1.41552734,5.12978832 C0.604248062,5.33379535 0,6.08984374 0,6.98916329 L0,10.7956149 C0,11.1519657 0.279785156,11.4407762 0.625,11.4407762 L1.22912597,11.4407762 L1.22912597,13.3332913 C1.22912597,13.6896421 1.50891112,13.9784526 1.85412597,13.9784526 L5.54162597,13.9784526 C5.88684081,13.9784526 6.16662597,13.6896421 6.16662597,13.3332913 L6.16662597,11.4407762 L9.83325194,11.4407762 L9.83325194,13.3332913 C9.83325194,13.6896421 10.1131592,13.9784526 10.4582519,13.9784526 L14.1457519,13.9784526 C14.4909668,13.9784526 14.7707519,13.6896421 14.7707519,13.3332913 L14.7707519,11.4407762 L15.375,11.4407762 C15.7202148,11.4407762 16,11.1519657 16,10.7956149 L16,6.98916329 C16,6.09009577 15.3961182,5.33417339 14.585083,5.13004032 Z M1.25,10.1504536 L1.25,6.98916329 C1.25,6.64528729 1.52099609,6.36554939 1.85412597,6.36554939 L14.1457519,6.36554939 C14.4788818,6.36554939 14.75,6.64541329 14.75,6.98916329 L14.75,10.1504536 C11.8925781,10.1504536 4.02453612,10.1504536 1.25,10.1504536 Z M4.15917969,1.687374 C4.25659181,1.44606855 4.48303222,1.29032258 4.736084,1.29032258 L11.2702637,1.29032258 C11.5238037,1.29032258 11.7503662,1.44644658 11.8475342,1.68813003 L13.2097168,5.07522681 L2.79162597,5.07522681 L4.15917969,1.687374 Z M4.91662597,12.68813 L2.47912597,12.68813 L2.47912597,11.4407762 L4.91662597,11.4407762 L4.91662597,12.68813 Z M13.520874,12.68813 L11.083374,12.68813 L11.083374,11.4407762 L13.520874,11.4407762 L13.520874,12.68813 Z M4.47912597,8.27784777 C4.47912597,8.72316029 4.12939453,9.08429939 3.69787597,9.08429939 C3.2664795,9.08429939 2.91662597,8.72316029 2.91662597,8.27784777 C2.91662597,7.83240929 3.2664795,7.47139616 3.69787597,7.47139616 C4.12939453,7.47139616 4.47912597,7.83240929 4.47912597,8.27784777 Z M13.083374,8.27784777 C13.083374,8.72316029 12.7335205,9.08429939 12.302124,9.08429939 C11.8706055,9.08429939 11.520874,8.72316029 11.520874,8.27784777 C11.520874,7.83240929 11.8706055,7.47139616 12.302124,7.47139616 C12.7335205,7.47139616 13.083374,7.83240929 13.083374,8.27784777 Z" id="Shape"></path>
            </g>
        </g>
    </g>
</svg>