<?xml version="1.0" encoding="UTF-8"?>
<svg width="16px" height="16px" viewBox="0 0 16 16" version="1.1" xmlns="http://www.w3.org/2000/svg" xmlns:xlink="http://www.w3.org/1999/xlink">
    <!-- Generator: Sketch 61 (89581) - https://sketch.com -->
    <title>ic_checkbullet</title>
    <desc>Created with Sketch.</desc>
    <g id="Assets" stroke="none" stroke-width="1" fill="none" fill-rule="evenodd">
        <g id="Artboard" transform="translate(-700.000000, -28.000000)" fill="#FF7A01" fill-rule="nonzero">
            <g id="87932" transform="translate(703.000000, 31.000000)">
                <path d="M4.99130208,0 C2.23911458,0 0,2.2390625 0,4.99130208 C0,7.74354167 2.23911458,9.98265625 4.99130208,9.98265625 C7.74348958,9.98265625 9.98260417,7.74354167 9.98260417,4.99130208 C9.98260417,2.2390625 7.74354167,0 4.99130208,0 Z M7.85739583,4.14822917 L4.72161458,7.28401042 C4.58828125,7.41734375 4.41104167,7.49072917 4.2225,7.49072917 C4.03395833,7.49072917 3.85671875,7.41734375 3.72338542,7.28401042 L2.12520833,5.68583333 C1.991875,5.5525 1.9184375,5.37526042 1.9184375,5.18671875 C1.9184375,4.998125 1.991875,4.82088542 2.12520833,4.68755208 C2.25848958,4.55421875 2.43572917,4.48078125 2.62432292,4.48078125 C2.81286458,4.48078125 2.99015625,4.55421875 3.1234375,4.68760417 L4.22244792,5.7865625 L6.8590625,3.14994792 C6.99239583,3.01661458 7.16963542,2.94322917 7.35817708,2.94322917 C7.54671875,2.94322917 7.72395833,3.01661458 7.85729167,3.14994792 C8.13260417,3.42526042 8.13260417,3.87302083 7.85739583,4.14822917 Z" id="Shape"></path>
            </g>
        </g>
    </g>
</svg>