<?xml version="1.0" encoding="UTF-8"?>
<svg width="20px" height="20px" viewBox="0 0 20 20" version="1.1" xmlns="http://www.w3.org/2000/svg" xmlns:xlink="http://www.w3.org/1999/xlink">
    <!-- Generator: Sketch 61 (89581) - https://sketch.com -->
    <title>ic_contact</title>
    <desc>Created with Sketch.</desc>
    <g id="Assets" stroke="none" stroke-width="1" fill="none" fill-rule="evenodd" opacity="0.404854">
        <g id="Artboard" transform="translate(-45.000000, -151.000000)" fill="#FFFFFF" fill-rule="nonzero">
            <path d="M62.6413092,165.655229 L60.1703588,163.178403 C59.6781912,162.687102 58.8631522,162.702029 58.353839,163.21268 L57.1089636,164.4601 C57.0303142,164.416655 56.9489068,164.371275 56.8633165,164.323131 C56.0771907,163.886561 55.0012435,163.288191 53.869033,162.152585 C52.7334668,161.014584 52.1358972,159.934541 51.6989818,159.146127 C51.652877,159.0626 51.6087028,158.982068 51.5650802,158.90559 L52.4005745,158.069447 L52.8113347,157.657249 C53.3214293,157.14586 53.3354952,156.329205 52.8444768,155.836475 L50.3735264,153.359373 C49.882508,152.867334 49.0671013,152.882261 48.5570066,153.39365 L47.8606082,154.095634 L47.8796385,154.11457 C47.6461267,154.413202 47.4509972,154.757629 47.3057878,155.129054 C47.1719322,155.482603 47.0885942,155.819982 47.0504876,156.158051 C46.7242146,158.869056 47.9602644,161.346711 51.3147445,164.708838 C55.9516551,169.355932 59.6883959,169.004871 59.8496018,168.987732 C60.2006969,168.945669 60.5371746,168.86159 60.8791223,168.72849 C61.2464897,168.584657 61.5899084,168.389361 61.887682,168.155827 L61.902897,168.169372 L62.6083969,167.47697 C63.1174343,166.965674 63.1320977,166.148742 62.6413092,165.655229 Z" id="Path"></path>
        </g>
    </g>
</svg>