<?xml version="1.0" encoding="UTF-8"?>
<svg width="16px" height="16px" viewBox="0 0 16 16" version="1.1" xmlns="http://www.w3.org/2000/svg" xmlns:xlink="http://www.w3.org/1999/xlink">
    <!-- Generator: Sketch 61 (89581) - https://sketch.com -->
    <title>ic_client</title>
    <desc>Created with Sketch.</desc>
    <g id="Assets" stroke="none" stroke-width="1" fill="none" fill-rule="evenodd" opacity="0.349400112">
        <g id="Artboard" transform="translate(-161.000000, -23.000000)" fill="#000000" fill-rule="nonzero">
            <g id="user-(9)" transform="translate(163.000000, 24.000000)">
                <path d="M5.89770735,6.73072002 C6.84769276,6.73072002 7.67030521,6.39907713 8.34243575,5.74474597 C9.01456629,5.09052144 9.35528621,4.29003717 9.35528621,3.36525341 C9.35528621,2.44078947 9.01456629,1.64019857 8.34232623,0.98576085 C7.67008615,0.331642916 6.84758324,0 5.89770735,0 C4.94761245,0 4.12521903,0.331642916 3.45308849,0.985867446 C2.78095794,1.64009198 2.4401285,2.44068288 2.4401285,3.36525341 C2.4401285,4.29003717 2.78095794,5.09062804 3.453198,5.74485257 C4.12543808,6.3989705 4.94794099,6.73072002 5.89770735,6.73072002 Z" id="Path"></path>
                <path d="M11.9475394,10.7443348 C11.9281542,10.4720699 11.8889457,10.1750731 11.8312281,9.86144614 C11.7729629,9.54547394 11.697941,9.24677144 11.6081338,8.97376036 C11.5153695,8.69158138 11.3892012,8.41292034 11.2332433,8.14587901 C11.0713712,7.8687104 10.8812427,7.6273605 10.6678957,7.42875854 C10.4448014,7.22098866 10.1716559,7.05394126 9.85579733,6.9320937 C9.54103388,6.81088571 9.19220941,6.7494822 8.81907126,6.7494822 C8.67253211,6.7494822 8.53081192,6.80800744 8.25711886,6.98145101 C8.08867553,7.08837414 7.8916472,7.21203398 7.67172897,7.34880604 C7.48368137,7.46543008 7.22893545,7.57469847 6.91428154,7.67362635 C6.60729409,7.77031553 6.29559726,7.81935308 5.98795267,7.81935308 C5.68030811,7.81935308 5.36872079,7.77031553 5.0614048,7.67362635 C4.74707944,7.57480507 4.49233351,7.46553668 4.30450497,7.34891264 C4.08666763,7.21341982 3.88952978,7.08975998 3.71856746,6.98134441 C3.44520297,6.80790084 3.30337323,6.7493756 3.15683411,6.7493756 C2.78358645,6.7493756 2.4348715,6.81088571 2.12021759,6.93220029 C1.80457797,7.05383467 1.53132303,7.22088207 1.30800964,7.42886514 C1.0947722,7.62757372 0.904534178,7.86881702 0.74288114,8.14587901 C0.58703271,8.41292034 0.460864486,8.69147479 0.367990654,8.97386696 C0.278292925,9.24687804 0.203271028,9.54547394 0.145005841,9.86144614 C0.0872882523,10.1746467 0.0480797383,10.4717501 0.0286945234,10.7446546 C0.00963785047,11.0120157 0,11.2895042 0,11.5697643 C0,12.2991441 0.238208243,12.8896199 0.707943925,13.3250944 C1.171875,13.7548124 1.78574036,13.9728161 2.53223568,13.9728161 L9.4443268,13.9728161 C10.1908221,13.9728161 10.8044685,13.754919 11.268509,13.3250944 C11.7383543,12.8899397 11.9765625,12.2993573 11.9765625,11.5696576 C11.9765625,11.2881183 11.9667056,11.0104167 11.9475394,10.7443348 L11.9475394,10.7443348 Z" id="Path"></path>
            </g>
        </g>
    </g>
</svg>