<?xml version="1.0" encoding="UTF-8"?>
<svg width="24px" height="24px" viewBox="0 0 24 24" version="1.1" xmlns="http://www.w3.org/2000/svg" xmlns:xlink="http://www.w3.org/1999/xlink">
    <!-- Generator: Sketch 61 (89581) - https://sketch.com -->
    <title>ic_clock</title>
    <desc>Created with Sketch.</desc>
    <g id="Assets" stroke="none" stroke-width="1" fill="none" fill-rule="evenodd">
        <g id="Artboard" transform="translate(-230.000000, -63.000000)" fill="#1F1F1F" fill-rule="nonzero">
            <g id="time" transform="translate(242.000000, 75.000000) scale(-1, 1) translate(-242.000000, -75.000000) translate(233.000000, 66.000000)">
                <path d="M8.99431373,17.9681569 C4.03615686,17.9681569 0,13.9524706 0,8.99431373 C0,4.03615686 4.03615686,0.0204705882 8.99431373,0.0204705882 C13.9524706,0.0204705882 17.9886275,4.03615686 17.9886275,8.99431373 C17.9886275,13.9524706 13.9524706,17.9681569 8.99431373,17.9681569 Z M8.99431373,1.24976471 C4.71227451,1.24976471 1.22929412,4.7327451 1.22929412,8.99431373 C1.22929412,13.2558824 4.71227451,16.7388627 8.99431373,16.7388627 C13.2763529,16.7388627 16.7593333,13.2558824 16.7593333,8.99431373 C16.7593333,4.7327451 13.2763529,1.24976471 8.99431373,1.24976471 Z" id="Shape"></path>
                <path d="M6.88403922,12.17 C6.72011765,12.17 6.57670588,12.108549 6.45380392,11.9856078 C6.20796078,11.7397647 6.20796078,11.3504706 6.45380392,11.125098 L8.56407843,9.01482353 L8.56407843,4.65082353 C8.56407843,4.3025098 8.83043137,4.03619608 9.17870588,4.03619608 C9.52698039,4.03619608 9.79333333,4.30254902 9.79333333,4.65082353 L9.79333333,9.26066667 C9.79333333,9.42458824 9.73188235,9.58847059 9.60894118,9.69090196 L7.31427451,11.9855686 C7.19137255,12.1085098 7.04792157,12.17 6.88403922,12.17 Z" id="Path"></path>
            </g>
        </g>
    </g>
</svg>