<?xml version="1.0" encoding="UTF-8"?>
<svg width="24px" height="24px" viewBox="0 0 24 24" version="1.1" xmlns="http://www.w3.org/2000/svg" xmlns:xlink="http://www.w3.org/1999/xlink">
    <!-- Generator: Sketch 61 (89581) - https://sketch.com -->
    <title>ic_delete</title>
    <desc>Created with Sketch.</desc>
    <g id="Assets" stroke="none" stroke-width="1" fill="none" fill-rule="evenodd" opacity="0.503515">
        <g id="Artboard" transform="translate(-672.000000, 0.000000)" fill="#1F1F1F" fill-rule="nonzero" stroke="#1F1F1F" stroke-width="0.2">
            <g id="garbage" transform="translate(677.000000, 4.000000)">
                <path d="M13.5483871,2.29979466 L10.283871,2.29979466 L10.283871,1.75770021 C10.283871,0.788501027 9.50967742,0 8.55806452,0 L5.45483871,0 C4.50322581,0 3.72903226,0.788501027 3.72903226,1.75770021 L3.72903226,2.29979466 L0.464516129,2.29979466 C0.222580645,2.29979466 0.0290322581,2.49691992 0.0290322581,2.74332649 C0.0290322581,2.98973306 0.222580645,3.18685832 0.464516129,3.18685832 L1.2516129,3.18685832 L1.2516129,13.6082136 C1.2516129,14.9158111 2.29677419,15.9802875 3.58064516,15.9802875 L10.4322581,15.9802875 C11.716129,15.9802875 12.7612903,14.9158111 12.7612903,13.6082136 L12.7612903,3.18685832 L13.5483871,3.18685832 C13.7903226,3.18685832 13.983871,2.98973306 13.983871,2.74332649 C13.983871,2.49691992 13.7903226,2.29979466 13.5483871,2.29979466 Z M4.6,1.75770021 C4.6,1.27802875 4.98387097,0.887063655 5.45483871,0.887063655 L8.55806452,0.887063655 C9.02903226,0.887063655 9.41290323,1.27802875 9.41290323,1.75770021 L9.41290323,2.29979466 L4.6,2.29979466 L4.6,1.75770021 Z M11.8903226,13.6082136 C11.8903226,14.4262834 11.2354839,15.0932238 10.4322581,15.0932238 L3.58064516,15.0932238 C2.77741935,15.0932238 2.12258065,14.4262834 2.12258065,13.6082136 L2.12258065,3.18685832 L11.8935484,3.18685832 L11.8935484,13.6082136 L11.8903226,13.6082136 Z" id="Shape"></path>
                <path d="M5.03951613,13.0135524 C5.28145161,13.0135524 5.475,12.8164271 5.475,12.5700205 L5.475,5.70677618 C5.475,5.46036961 5.28145161,5.26324435 5.03951613,5.26324435 C4.79758065,5.26324435 4.60403226,5.46036961 4.60403226,5.70677618 L4.60403226,12.5700205 C4.60403226,12.8164271 4.80080645,13.0135524 5.03951613,13.0135524 Z" id="Path"></path>
                <path d="M8.9733871,13.0135524 C9.21532258,13.0135524 9.40887097,12.8164271 9.40887097,12.5700205 L9.40887097,5.70677618 C9.40887097,5.46036961 9.21532258,5.26324435 8.9733871,5.26324435 C8.73145161,5.26324435 8.53790323,5.46036961 8.53790323,5.70677618 L8.53790323,12.5700205 C8.53790323,12.8164271 8.73145161,13.0135524 8.9733871,13.0135524 Z" id="Path"></path>
            </g>
        </g>
    </g>
</svg>