<?xml version="1.0" encoding="UTF-8"?>
<svg width="26px" height="26px" viewBox="0 0 26 26" version="1.1" xmlns="http://www.w3.org/2000/svg" xmlns:xlink="http://www.w3.org/1999/xlink">
    <!-- Generator: Sketch 61 (89581) - https://sketch.com -->
    <title>ic_download</title>
    <desc>Created with Sketch.</desc>
    <g id="Assets" stroke="none" stroke-width="1" fill="none" fill-rule="evenodd">
        <g id="Artboard" transform="translate(-688.000000, -56.000000)" fill="#FFFFFF" fill-rule="nonzero" stroke="#FFFFFF" stroke-width="0.5">
            <g id="file-(3)" transform="translate(691.000000, 58.000000)">
                <path d="M13.0344828,8.8 L3.98275862,8.8 C3.78289655,8.8 3.62068966,8.96426667 3.62068966,9.16666667 C3.62068966,9.36906667 3.78289655,9.53333333 3.98275862,9.53333333 L13.0344828,9.53333333 C13.2343448,9.53333333 13.3965517,9.36906667 13.3965517,9.16666667 C13.3965517,8.96426667 13.2343448,8.8 13.0344828,8.8 Z" id="Path"></path>
                <path d="M3.98275862,5.86666667 L7.60344828,5.86666667 C7.80331034,5.86666667 7.96551724,5.7024 7.96551724,5.5 C7.96551724,5.2976 7.80331034,5.13333333 7.60344828,5.13333333 L3.98275862,5.13333333 C3.78289655,5.13333333 3.62068966,5.2976 3.62068966,5.5 C3.62068966,5.7024 3.78289655,5.86666667 3.98275862,5.86666667 Z" id="Path"></path>
                <path d="M10.5,12.8333333 C10.5,12.6309333 10.3377931,12.4666667 10.137931,12.4666667 L3.98275862,12.4666667 C3.78289655,12.4666667 3.62068966,12.6309333 3.62068966,12.8333333 C3.62068966,13.0357333 3.78289655,13.2 3.98275862,13.2 L10.137931,13.2 C10.3377931,13.2 10.5,13.0357333 10.5,12.8333333 Z" id="Path"></path>
                <path d="M1.82413793,0.733333333 L11.2241379,0.733333333 L11.2241379,0.733333333 L11.2241379,5.86666667 L16.2931034,5.86666667 L16.2931034,12.1 L17.0172414,12.1 L17.0172414,5.3482 L11.7361034,0 L1.1,0 C0.492486775,1.11598369e-16 -5.18488122e-16,0.492486775 0,1.1 L0,20.9 C1.96292939e-15,21.5075132 0.492486775,22 1.1,22 L11.2241379,22 L11.2241379,22 L11.2241379,21.2666667 L1.82413793,21.2666667 C1.21662471,21.2666667 0.724137931,20.7741799 0.724137931,20.1666667 L0.724137931,1.83333333 C0.724137931,1.22582011 1.21662471,0.733333333 1.82413793,0.733333333 Z M11.9482759,1.2518 L15.7811379,5.13333333 L11.9482759,5.13333333 L11.9482759,1.2518 Z" id="Shape"></path>
                <path d="M12.3103448,14.3 L12.3103448,20.9 C12.3103448,21.5075132 12.8028316,22 13.4103448,22 L19.9,22 C20.5075132,22 21,21.5075132 21,20.9 L21,14.3 C21,13.6924868 20.5075132,13.2 19.9,13.2 L13.4103448,13.2 C12.8028316,13.2 12.3103448,13.6924868 12.3103448,14.3 Z M19.1758621,21.2666667 L14.1344828,21.2666667 C13.5269695,21.2666667 13.0344828,20.7741799 13.0344828,20.1666667 L13.0344828,15.0333333 C13.0344828,14.4258201 13.5269695,13.9333333 14.1344828,13.9333333 L16.2931034,13.9333333 L16.2931034,13.9333333 L16.2931034,18.5482 L14.7387414,16.9741 L14.2267759,17.4925667 L16.6551724,19.9518 L19.083569,17.4925667 L18.5716034,16.9741 L17.0172414,18.5482 L17.0172414,13.9333333 L19.1758621,13.9333333 C19.7833753,13.9333333 20.2758621,14.4258201 20.2758621,15.0333333 L20.2758621,20.1666667 C20.2758621,20.7741799 19.7833753,21.2666667 19.1758621,21.2666667 Z" id="Shape"></path>
            </g>
        </g>
    </g>
</svg>