<?xml version="1.0" encoding="UTF-8"?>
<svg width="26px" height="26px" viewBox="0 0 26 26" version="1.1" xmlns="http://www.w3.org/2000/svg" xmlns:xlink="http://www.w3.org/1999/xlink">
    <!-- Generator: Sketch 61 (89581) - https://sketch.com -->
    <title>ic_fullscreen</title>
    <desc>Created with Sketch.</desc>
    <g id="Assets" stroke="none" stroke-width="1" fill="none" fill-rule="evenodd">
        <g id="Artboard" transform="translate(-834.000000, -4.000000)" fill="#FFFFFF" fill-rule="nonzero" stroke="#FFFFFF" stroke-width="0.6">
            <g id="Group-19" transform="translate(837.000000, 7.000000)">
                <path d="M0.833282461,6.66671754 C1.29409789,6.66671754 1.66671754,6.29409789 1.66671754,5.83328246 L1.66671754,2.5 C1.66671754,2.0399475 2.0399475,1.66671754 2.5,1.66671754 L5.83328246,1.66671754 C6.29409789,1.66671754 6.66671754,1.29409789 6.66671754,0.833282461 C6.66671754,0.372467031 6.29409789,1.66533454e-15 5.83328246,1.66533454e-15 L2.5,1.66533454e-15 C1.12167359,1.66533454e-15 3.71924713e-14,1.12167359 3.71924713e-14,2.5 L3.71924713e-14,5.83328246 C3.71924713e-14,6.29409789 0.372467031,6.66671754 0.833282461,6.66671754 Z" id="Path"></path>
                <path d="M19.1667175,13.3332825 C18.7059021,13.3332825 18.3332825,13.7059021 18.3332825,14.1667175 L18.3332825,17.5 C18.3332825,17.9600525 17.9600525,18.3332825 17.5,18.3332825 L14.1667175,18.3332825 C13.7059021,18.3332825 13.3332825,18.7059021 13.3332825,19.1667175 C13.3332825,19.627533 13.7059021,20 14.1667175,20 L17.5,20 C18.8783264,20 20,18.8783264 20,17.5 L20,14.1667175 C20,13.7059021 19.627533,13.3332825 19.1667175,13.3332825 L19.1667175,13.3332825 Z" id="Path"></path>
                <path d="M5.83328246,18.3332825 L2.5,18.3332825 C2.0399475,18.3332825 1.66671754,17.9600525 1.66671754,17.5 L1.66671754,14.1667175 C1.66671754,13.7059021 1.29409789,13.3332825 0.833282461,13.3332825 C0.372467031,13.3332825 3.71924713e-14,13.7059021 3.71924713e-14,14.1667175 L3.71924713e-14,17.5 C3.71924713e-14,18.8783264 1.12167359,20 2.5,20 L5.83328246,20 C6.29409789,20 6.66671754,19.627533 6.66671754,19.1667175 C6.66671754,18.7059021 6.29409789,18.3332825 5.83328246,18.3332825 Z" id="Path"></path>
                <path d="M17.5,1.66533454e-15 L14.1667175,1.66533454e-15 C13.7059021,1.66533454e-15 13.3332825,0.372467031 13.3332825,0.833282461 C13.3332825,1.29409789 13.7059021,1.66671754 14.1667175,1.66671754 L17.5,1.66671754 C17.9600525,1.66671754 18.3332825,2.0399475 18.3332825,2.5 L18.3332825,5.83328246 C18.3332825,6.29409789 18.7059021,6.66671754 19.1667175,6.66671754 C19.627533,6.66671754 20,6.29409789 20,5.83328246 L20,2.5 C20,1.12167359 18.8783264,1.66533454e-15 17.5,1.66533454e-15 Z" id="Path"></path>
            </g>
        </g>
    </g>
</svg>