<?xml version="1.0" encoding="UTF-8"?>
<svg width="26px" height="26px" viewBox="0 0 26 26" version="1.1" xmlns="http://www.w3.org/2000/svg" xmlns:xlink="http://www.w3.org/1999/xlink">
    <!-- Generator: Sketch 61 (89581) - https://sketch.com -->
    <title>ic_Finanzas</title>
    <desc>Created with Sketch.</desc>
    <g id="Assets" stroke="none" stroke-width="1" fill="none" fill-rule="evenodd">
        <g id="Artboard" transform="translate(-792.000000, -56.000000)">
            <g id="Group-7" transform="translate(794.000000, 58.000000)">
                <circle id="Oval" fill="#FF7A01" cx="17" cy="5" r="5"></circle>
                <g id="coin-(3)" transform="translate(0.000000, 2.000000)" fill="#1F1F1F" fill-rule="nonzero" stroke="#1F1F1F" stroke-width="0.2">
                    <path d="M9.9884507,0 C4.48084507,0 0,4.48084507 0,9.9884507 C0,15.4960563 4.48084507,19.9769014 9.9884507,19.9769014 C15.4960563,19.9769014 19.9769014,15.4960563 19.9769014,9.9884507 C19.9769014,4.48084507 15.4961502,0 9.9884507,0 Z M9.9884507,18.6624413 C5.2056338,18.6624413 1.31455399,14.7712676 1.31455399,9.9884507 C1.31455399,5.2056338 5.2056338,1.31455399 9.9884507,1.31455399 C14.7712676,1.31455399 18.6623474,5.2056338 18.6623474,9.9884507 C18.6623474,14.7712676 14.7712676,18.6624413 9.9884507,18.6624413 Z" id="Shape"></path>
                    <path d="M10.6146102,9.52096707 L10.6146102,6.489812 C10.9623917,6.60200074 11.2658335,6.80784533 11.4768204,7.08621983 C11.6635741,7.33248592 12.0447202,7.40066861 12.3281433,7.238525 C12.6116542,7.07638139 12.6901487,6.7453064 12.503395,6.49904031 C12.0618415,5.91666561 11.381468,5.52129756 10.6146102,5.38195777 L10.6146102,4.5338689 C10.6146102,4.23902073 10.3394404,4 10,4 C9.66055959,4 9.38538984,4.23902073 9.38538984,4.5338689 L9.38538984,5.38035617 C8.02508195,5.62669853 7,6.67605598 7,7.92965642 C7,9.18325685 8.02516975,10.2327668 9.38538984,10.4791092 L9.38538984,13.5102643 C9.03760829,13.3980755 8.73416647,13.1922309 8.52317958,12.9138564 C8.3364259,12.6675903 7.95527979,12.5993314 7.67185671,12.7615513 C7.38834582,12.9236949 7.30985132,13.2547699 7.49660501,13.501036 C7.93815851,14.0834107 8.61853196,14.4787787 9.38538984,14.6181185 L9.38538984,15.4661311 C9.38538984,15.7609793 9.66055959,16 10,16 C10.3394404,16 10.6146102,15.7609793 10.6146102,15.4661311 L10.6146102,14.6197201 C11.9749181,14.3733777 13,13.3240203 13,12.0704198 C13,10.8168194 11.9749181,9.76730943 10.6146102,9.52096707 Z M8.22922032,7.92965642 C8.22922032,7.26971819 8.7116015,6.70732544 9.38538984,6.49019334 L9.38538984,9.3691195 C8.7116015,9.15198739 8.22922032,8.58959464 8.22922032,7.92965642 L8.22922032,7.92965642 Z M10.6146102,13.5098067 L10.6146102,10.6308805 C11.2883985,10.8480126 11.7707797,11.4104054 11.7707797,12.0703436 C11.7707797,12.7302818 11.2884863,13.2926746 10.6146102,13.5098067 Z" id="Shape"></path>
                </g>
            </g>
        </g>
    </g>
</svg>