<?xml version="1.0" encoding="UTF-8"?>
<svg width="20px" height="20px" viewBox="0 0 20 20" version="1.1" xmlns="http://www.w3.org/2000/svg" xmlns:xlink="http://www.w3.org/1999/xlink">
    <!-- Generator: Sketch 61 (89581) - https://sketch.com -->
    <title>ic_fb</title>
    <desc>Created with Sketch.</desc>
    <g id="Assets" stroke="none" stroke-width="1" fill="none" fill-rule="evenodd" opacity="0.4">
        <g id="Artboard" transform="translate(-46.000000, -326.000000)" fill="#FFFFFF" fill-rule="nonzero">
            <g id="001-facebook-logo" transform="translate(49.000000, 329.000000)">
                <path d="M14.6285714,2.50016667 C14.6285714,1.1865 13.471939,0 12.1904762,0 L2.43809524,0 C1.15663238,0 0,1.1865 0,2.50016667 L0,12.4998333 C0,13.8135 1.15663238,15 2.43825778,15 L7.31428571,15 L7.31428571,9.33333333 L5.52634921,9.33333333 L5.52634921,6.83333333 L7.31428571,6.83333333 L7.31428571,5.85933333 C7.31428571,4.1795 8.54438603,2.66666667 10.0571429,2.66666667 L12.0279365,2.66666667 L12.0279365,5.16666667 L10.0571429,5.16666667 C9.8414527,5.16666667 9.58984127,5.43516667 9.58984127,5.83733333 L9.58984127,6.83333333 L12.0279365,6.83333333 L12.0279365,9.33333333 L9.58984127,9.33333333 L9.58984127,15 L12.1904762,15 C13.471939,15 14.6285714,13.8135 14.6285714,12.4998333 L14.6285714,2.50016667 Z" id="Facebook__x28_alt_x29_"></path>
            </g>
        </g>
    </g>
</svg>