<?xml version="1.0" encoding="UTF-8"?>
<svg width="26px" height="26px" viewBox="0 0 26 26" version="1.1" xmlns="http://www.w3.org/2000/svg" xmlns:xlink="http://www.w3.org/1999/xlink">
    <!-- Generator: Sketch 61 (89581) - https://sketch.com -->
    <title>ic_Herramientas</title>
    <desc>Created with Sketch.</desc>
    <g id="Assets" stroke="none" stroke-width="1" fill="none" fill-rule="evenodd">
        <g id="Artboard" transform="translate(-792.000000, -88.000000)">
            <g id="Group-8" transform="translate(793.000000, 90.000000)">
                <circle id="Oval" fill="#FF7A01" cx="19.5" cy="5" r="5"></circle>
                <g id="wrench" transform="translate(0.000000, 3.000000)" fill="#1F1F1F" fill-rule="nonzero" stroke="#1F1F1F" stroke-width="0.5">
                    <g id="Group-30" transform="translate(0.029471, 0.000000)">
                        <path d="M19.3177056,1.81719268 L18.1111958,0.617738486 C17.3243723,-0.164483736 15.9985683,-0.209980812 15.1556664,0.516373964 L13.035235,2.34366441 C13.0080977,2.36705622 12.9848036,2.39458059 12.9662938,2.42518488 L10.9021762,5.84335252 L9.57684285,6.28253381 C9.46484285,6.31964882 9.38017618,6.41177357 9.35307814,6.52596461 C9.3259801,6.64015564 9.36025461,6.76015564 9.44370559,6.84315759 L13.0556664,10.4339568 C13.1202938,10.4981673 13.207235,10.5330991 13.2964899,10.5330991 C13.3225683,10.5330991 13.3488036,10.5301361 13.3747252,10.5240543 C13.4895879,10.4971147 13.5822546,10.4129432 13.6195879,10.3015981 L14.0614703,8.98358644 L17.5502938,6.88923946 C17.5809997,6.87075993 17.6086076,6.84764102 17.6320585,6.82058449 L19.4265683,4.75317708 C20.1531174,3.91621802 20.1042154,2.59914199 19.3177056,1.81719268 Z M18.9109605,4.31079891 L17.1518625,6.33738761 L13.6020585,8.46834277 C13.5327644,8.50994121 13.4806468,8.57473654 13.4550389,8.65114979 L13.1477056,9.56779697 L12.333784,8.75863517 C12.3336272,8.75847923 12.3335095,8.75828429 12.3333527,8.75812835 L11.1293134,7.56120827 C11.1291958,7.56109131 11.1290389,7.56101334 11.1289213,7.56089638 L10.3149213,6.75165661 L11.2369605,6.44612055 C11.3140585,6.4205455 11.3794311,6.36845973 11.421235,6.29921997 L13.522333,2.81996071 L15.601784,1.0279919 C16.180333,0.52935642 17.0899801,0.560077667 17.6295487,1.0965689 L18.8360977,2.29602309 C19.3759409,2.83263127 19.4095095,3.73649092 18.9109605,4.31079891 Z" id="Shape"></path>
                        <path d="M18.352333,13.6031966 C17.3524899,12.6092395 15.8809213,12.2637424 14.5476272,12.69345 L7.31029383,5.49844024 C7.74248991,4.17294316 7.39496049,2.70994121 6.39519579,1.71594511 C5.34186245,0.668849597 3.76496049,0.341286244 2.37774481,0.881793067 C2.27080363,0.92346948 2.19213696,1.01594511 2.16864677,1.12775798 C2.14515657,1.23953186 2.17994089,1.35559424 2.26119579,1.43637396 L4.42750951,3.5899802 L2.98268598,5.02631548 L0.816411474,2.87267026 C0.735117357,2.79192952 0.618529121,2.7574266 0.505980102,2.78066246 C0.393509513,2.80401529 0.30045069,2.88218293 0.258568337,2.98853771 C-0.285039506,4.36756305 0.0443330428,5.93528235 1.09762716,6.98249482 C2.0974703,7.97645194 3.56903893,8.32202698 4.90233304,7.89224141 L7.60852912,10.5826118 L4.23845069,13.9330601 L2.09499971,15.1244831 C2.03539187,15.1576215 1.98715657,15.207836 1.95660755,15.2685767 L0.993431082,17.1836644 C0.927862455,17.3139958 0.953548729,17.4714227 1.05719579,17.5745026 L2.26115657,18.7714617 C2.32652912,18.8364519 2.41370559,18.870604 2.50205853,18.870604 C2.55378402,18.870604 2.60590167,18.8589081 2.65429383,18.8348535 L4.58064677,17.8773096 C4.64174481,17.8469393 4.69225461,17.798986 4.72558794,17.7397268 L5.92401932,15.6087716 L9.29417618,12.2584402 L12.1397056,15.0873291 C11.7074703,16.4128262 12.0550389,17.8758282 13.0548428,18.8698243 C13.7710389,19.5817931 14.7291958,19.9610523 15.7052742,19.9610523 C16.1647252,19.9610523 16.6282546,19.8769588 17.0722546,19.7040153 C17.1791958,19.6623389 17.2578625,19.5698632 17.2813527,19.4580504 C17.3048428,19.3462765 17.2700585,19.2302141 17.1888036,19.1494344 L15.0224899,16.9957892 L16.4672742,15.5594929 L18.6335487,17.7130991 C18.7148036,17.7938788 18.8314703,17.8285377 18.9439801,17.8051069 C19.0564507,17.7817541 19.1495095,17.7035864 19.1913919,17.5972317 C19.7350389,16.2181283 19.4056664,14.6504091 18.352333,13.6031966 Z M5.40896049,15.1631576 C5.38680363,15.1851849 5.36786245,15.2101361 5.35256834,15.2373486 L4.18225461,17.3182843 L2.569235,18.1200777 L1.71237226,17.2682258 L2.51884285,15.6646001 L4.6119801,14.5011693 C4.63935265,14.4859646 4.66445069,14.4671342 4.68660755,14.4451069 L8.09009775,11.0614812 L8.81248991,11.7796488 L5.40896049,15.1631576 Z M18.710137,16.8315786 L16.7080977,14.8412473 C16.5750781,14.7090835 16.3595095,14.7090835 16.2264899,14.8412473 L14.300137,16.756335 C14.2362938,16.8198437 14.2004115,16.9059256 14.2004115,16.9957502 C14.2004115,17.0855747 14.2362938,17.1716176 14.300137,17.2351654 L16.3022154,19.2255358 C15.3095095,19.4216371 14.2684507,19.1187521 13.5364507,18.3910328 C12.6746076,17.5342297 12.4050781,16.2513837 12.8499017,15.1229237 C12.8992742,14.9976215 12.8693527,14.8551654 12.7736664,14.7599997 L5.23158794,7.26206597 C5.16648991,7.19738761 5.07939187,7.16292367 4.99068598,7.16292367 C4.94896049,7.16292367 4.90684285,7.170565 4.86652912,7.1862765 C3.7314703,7.62853771 2.44107814,7.36050652 1.57919579,6.50378137 C0.847156572,5.7759841 0.54245069,4.74097435 0.739823239,3.75415174 L2.74186245,5.74452211 C2.87488206,5.87672484 3.09045069,5.87664687 3.2234703,5.74452211 L5.14982324,3.82943439 C5.28280363,3.69719268 5.28280363,3.48288468 5.14982324,3.35064297 L3.14778402,1.3602726 C4.14048991,1.16378137 5.1814703,1.46693927 5.91354873,2.19477552 C6.77539187,3.05157864 7.04492128,4.33442465 6.60009775,5.46288468 C6.5507252,5.58818683 6.58064677,5.73064297 6.67633304,5.82580866 L14.218333,13.3236644 C14.3140977,13.4187911 14.4574703,13.4485377 14.5833919,13.3994539 C15.7185291,12.9573486 17.0088428,13.2251849 17.8707252,14.081949 C18.6028428,14.8097463 18.9074703,15.844795 18.710137,16.8315786 Z" id="Shape"></path>
                    </g>
                </g>
            </g>
        </g>
    </g>
</svg>