<?xml version="1.0" encoding="UTF-8"?>
<svg width="20px" height="20px" viewBox="0 0 20 20" version="1.1" xmlns="http://www.w3.org/2000/svg" xmlns:xlink="http://www.w3.org/1999/xlink">
    <!-- Generator: Sketch 61 (89581) - https://sketch.com -->
    <title>ic_info_orange</title>
    <desc>Created with Sketch.</desc>
    <g id="Assets" stroke="none" stroke-width="1" fill="none" fill-rule="evenodd" opacity="0.515154">
        <g id="Artboard" transform="translate(-698.000000, -2.000000)" fill="#FF7A01" fill-rule="nonzero">
            <g id="info-button" transform="translate(700.000000, 4.000000)">
                <path d="M7.96834783,2.7533531e-14 C3.568,2.7533531e-14 -8.8817842e-16,3.56765217 -8.8817842e-16,7.968 C-8.8817842e-16,12.3686957 3.568,15.9366957 7.96834783,15.9366957 C12.3686957,15.9366957 15.9366957,12.3686957 15.9366957,7.968 C15.9366957,3.56765217 12.3690435,2.7533531e-14 7.96834783,2.7533531e-14 Z M9.18643478,12.3189565 C9.18643478,12.9871304 8.63930435,13.5286957 7.97182609,13.5286957 C7.304,13.5286957 6.75721739,12.9871304 6.75721739,12.3189565 L6.75721739,7.02643478 C6.75721739,6.3586087 7.304,5.81704348 7.97182609,5.81704348 C8.63930435,5.81704348 9.18643478,6.35826087 9.18643478,7.02643478 L9.18643478,12.3189565 Z M7.96834783,4.81773913 C7.23130435,4.81773913 6.63373913,4.22017391 6.63373913,3.48347826 C6.63373913,2.74608696 7.23130435,2.14921739 7.96834783,2.14921739 C8.70504348,2.14921739 9.30295652,2.74608696 9.30295652,3.48347826 C9.30295652,4.22017391 8.70504348,4.81773913 7.96834783,4.81773913 Z" id="Shape"></path>
            </g>
        </g>
    </g>
</svg>