<?xml version="1.0" encoding="UTF-8"?>
<svg width="20px" height="20px" viewBox="0 0 20 20" version="1.1" xmlns="http://www.w3.org/2000/svg" xmlns:xlink="http://www.w3.org/1999/xlink">
    <!-- Generator: Sketch 61 (89581) - https://sketch.com -->
    <title>ic_mail</title>
    <desc>Created with Sketch.</desc>
    <g id="Assets" stroke="none" stroke-width="1" fill="none" fill-rule="evenodd" opacity="0.5">
        <g id="Artboard" transform="translate(-45.000000, -220.000000)" fill="#FFFFFF" fill-rule="nonzero">
            <g id="black-back-closed-envelope-shape" transform="translate(47.000000, 224.000000)">
                <path d="M14.5658947,12.993455 C14.9254156,12.993455 15.2369365,12.8707206 15.5017641,12.6283741 L10.9703956,7.94312009 C10.861677,8.02361201 10.7562976,8.10188222 10.656755,8.17630947 C10.3176479,8.43462818 10.0424247,8.63620323 9.8310853,8.78064434 C9.61977495,8.9254157 9.33862795,9.07297921 8.98767332,9.2236351 C8.63648639,9.37447113 8.30931397,9.44964896 8.00580762,9.44964896 L7.99692196,9.44964896 L7.9880363,9.44964896 C7.68450091,9.44964896 7.35732849,9.37450115 7.0061706,9.2236351 C6.6550127,9.07297921 6.3738657,8.9254157 6.16275862,8.78064434 C5.95144828,8.63620323 5.67637024,8.4346582 5.33708893,8.17630947 C5.24254083,8.10464434 5.13768421,8.02601386 5.02431942,7.94185912 L0.492079855,12.6283741 C0.756878403,12.8707206 1.06860254,12.993455 1.42809437,12.993455 L14.5658947,12.993455 L14.5658947,12.993455 Z" id="Path"></path>
                <path d="M0.901546279,4.99281062 C0.56246824,4.75908083 0.261778584,4.49139492 0,4.18987298 L0,11.3181062 L3.99393103,7.18869977 C3.19491833,6.61195612 2.16543013,5.88083372 0.901546279,4.99281062 Z" id="Path"></path>
                <path d="M15.1015318,4.99281062 C13.8858512,5.84354503 12.8526171,6.57592841 12.0017132,7.19035104 L15.9940472,11.3182864 L15.9940472,4.18987298 C15.7380762,4.48533025 15.4406098,4.75283603 15.1015318,4.99281062 Z" id="Path"></path>
                <path d="M14.5658947,0.000390300231 L1.42812341,0.000390300231 C0.969785844,0.000390300231 0.617408348,0.160413395 0.370555354,0.48012933 C0.123499093,0.799995381 0.000174228675,1.20002309 0.000174228675,1.67976212 C0.000174228675,2.06727021 0.163833031,2.48714319 0.491005445,2.93950115 C0.818177858,3.39167898 1.16631579,3.74685219 1.53524501,4.00520092 C1.73749546,4.15294457 2.34741198,4.5913418 3.36499456,5.32024249 C3.91430853,5.71381524 4.39201452,6.05685912 4.80252632,6.35288684 C5.15243557,6.60496074 5.45419964,6.82325866 5.70334664,7.00441801 C5.73194918,7.02516397 5.77692922,7.05842956 5.83663158,7.10256351 C5.900951,7.15033025 5.98234483,7.21094688 6.08275862,7.28591455 C6.27612341,7.43050577 6.43676225,7.54738568 6.56470417,7.63667436 C6.69247187,7.72599307 6.84727405,7.82575982 7.0288784,7.93654503 C7.21033757,8.04718014 7.3814882,8.13037413 7.54212704,8.1857067 C7.70279492,8.24100924 7.85152813,8.26875058 7.98835572,8.26875058 L7.99724138,8.26875058 L8.00612704,8.26875058 C8.14292559,8.26875058 8.29168784,8.24100924 8.45238475,8.1857067 C8.61299456,8.13037413 8.784,8.04736028 8.96560436,7.93654503 C9.14703448,7.82575982 9.30163339,7.72578291 9.42980762,7.63667436 C9.55774955,7.54738568 9.71838838,7.4305358 9.91178221,7.28591455 C10.0119927,7.21094688 10.0933866,7.15030023 10.157706,7.10271363 C10.2174374,7.05839954 10.2623884,7.02534411 10.2911652,7.00441801 C10.4852559,6.8647806 10.7877169,6.64738337 11.1943666,6.3554388 C11.9343158,5.82387991 13.0240581,5.04150808 14.4681815,4.00520092 C14.9025045,3.69154965 15.2653648,3.3130485 15.5569946,2.87023788 C15.8481016,2.42742725 15.9940472,1.96293995 15.9940472,1.4769261 C15.9940472,1.07086374 15.8525445,0.723406467 15.5701488,0.434013857 C15.2874338,0.144981524 14.9526534,0.000390300231 14.5658947,0.000390300231 Z" id="Path"></path>
            </g>
        </g>
    </g>
</svg>