<?xml version="1.0" encoding="UTF-8"?>
<svg width="16px" height="16px" viewBox="0 0 16 16" version="1.1" xmlns="http://www.w3.org/2000/svg" xmlns:xlink="http://www.w3.org/1999/xlink">
    <!-- Generator: Sketch 61 (89581) - https://sketch.com -->
    <title>ic_nexrt_small</title>
    <desc>Created with Sketch.</desc>
    <g id="Assets" stroke="none" stroke-width="1" fill="none" fill-rule="evenodd">
        <g id="Artboard" transform="translate(-283.000000, -62.000000)" fill="#FFFFFF">
            <path d="M291,64 C294.313708,64 297,66.6862915 297,70 C297,73.3137085 294.313708,76 291,76 C287.686292,76 285,73.3137085 285,70 C285,66.6862915 287.686292,64 291,64 Z M291.341167,67.2563094 C291.107325,67.0943141 290.784016,67.1174563 290.575736,67.3257359 L290.575736,67.3257359 L290.506309,67.4088334 C290.344314,67.6426752 290.367456,67.9659844 290.575736,68.1742641 L290.575736,68.1742641 L291.8,69.4 L288.75,69.4 L288.652677,69.407853 C288.36759,69.4543532 288.15,69.7017662 288.15,70 C288.15,70.3313708 288.418629,70.6 288.75,70.6 L288.75,70.6 L291.8,70.6 L290.575736,71.8257359 L290.506309,71.9088334 C290.344314,72.1426752 290.367456,72.4659844 290.575736,72.6742641 C290.810051,72.9085786 291.189949,72.9085786 291.424264,72.6742641 L291.424264,72.6742641 L293.674264,70.4242641 L293.743691,70.3411666 C293.905686,70.1073248 293.882544,69.7840156 293.674264,69.5757359 L293.674264,69.5757359 L291.424264,67.3257359 Z" id="Combined-Shape"></path>
        </g>
    </g>
</svg>