<?xml version="1.0" encoding="UTF-8"?>
<svg width="16px" height="16px" viewBox="0 0 16 16" version="1.1" xmlns="http://www.w3.org/2000/svg" xmlns:xlink="http://www.w3.org/1999/xlink">
    <!-- Generator: Sketch 61 (89581) - https://sketch.com -->
    <title>ic_offer</title>
    <desc>Created with Sketch.</desc>
    <g id="Assets" stroke="none" stroke-width="1" fill="none" fill-rule="evenodd">
        <g id="Artboard" transform="translate(-604.000000, -28.000000)" fill="#E01900" fill-rule="nonzero">
            <g id="discount-(7)" transform="translate(606.000000, 30.000000)">
                <path d="M11.4136098,6.6677607 C11.3633659,6.56115564 11.3633659,6.43889494 11.4136098,6.33231518 L11.8793659,5.34428988 C12.1386829,4.79416732 11.9332195,4.13847665 11.4116098,3.85149027 L10.4747805,3.3360428 C10.3737073,3.28045136 10.3044146,3.18150973 10.2846341,3.06468677 L10.1014146,1.98146304 C9.99939024,1.37835409 9.46139024,0.973077821 8.87682927,1.05884241 L7.8267561,1.21286965 C7.71341463,1.22946109 7.60134146,1.1916751 7.51912195,1.10919844 L6.75690244,0.344575875 C6.3324878,-0.0811867704 5.66760976,-0.0812120623 5.24321951,0.344575875 L4.48097561,1.10927432 C4.39873171,1.19177626 4.28665854,1.22948638 4.17334146,1.21294553 L3.12326829,1.05891829 C2.5385122,0.973103113 2.00070732,1.37842996 1.89868293,1.98153891 L1.71546341,3.06471206 C1.69568293,3.18156031 1.62639024,3.28047665 1.52534146,3.33609339 L0.588512195,3.85154086 C0.066902439,4.13850195 -0.138560976,4.79424319 0.120756098,5.34436576 L0.586487805,6.33236576 C0.636731707,6.43897082 0.636731707,6.56123152 0.586487805,6.66781128 L0.120731707,7.65581128 C-0.138585366,8.20593385 0.0668780488,8.86162451 0.588487805,9.14861089 L1.52531707,9.66405837 C1.62639024,9.71964981 1.69568293,9.81859144 1.71546341,9.9354144 L1.89868293,11.0186381 C1.99156098,11.5676732 2.44556098,11.952716 2.96734146,11.9526654 C3.01873171,11.9526654 3.07087805,11.9489222 3.12329268,11.9412335 L4.17336585,11.7872062 C4.28660976,11.7705389 4.3987561,11.8084008 4.481,11.8908774 L5.24321951,12.6555 C5.45546341,12.8684066 5.72770732,12.9748093 6.00004878,12.9748093 C6.27231707,12.9748093 6.54473171,12.868356 6.75687805,12.6555 L7.51912195,11.8908774 C7.60136585,11.8084008 7.71346341,11.770716 7.8267561,11.7872062 L8.87682927,11.9412335 C9.46165854,12.0270233 9.99939024,11.6217218 10.1014146,11.0186128 L10.2846585,9.93543969 C10.304439,9.81859144 10.3737317,9.7196751 10.4747805,9.66405837 L11.4116098,9.14861089 C11.9332195,8.86164981 12.1386829,8.20590856 11.8793659,7.65578599 L11.4136098,6.6677607 Z M4.55953659,3.13912062 C5.28763415,3.13912062 5.88,3.75338327 5.88,4.50839494 C5.88,5.26340661 5.28763415,5.87766926 4.55953659,5.87766926 C3.83143902,5.87766926 3.23907317,5.26340661 3.23907317,4.50839494 C3.23907317,3.75338327 3.83143902,3.13912062 4.55953659,3.13912062 Z M3.87797561,9.22863424 C3.80765854,9.30155058 3.7154878,9.3380214 3.62334146,9.3380214 C3.53119512,9.3380214 3.439,9.30157588 3.36870732,9.22863424 C3.22807317,9.08280156 3.22807317,8.84634825 3.36870732,8.70051556 L8.12209756,3.77141634 C8.26270732,3.62558366 8.4907561,3.62558366 8.63139024,3.77141634 C8.77202439,3.91724903 8.77202439,4.15370233 8.63139024,4.29953502 L3.87797561,9.22863424 Z M7.4405122,9.86098054 C6.71241463,9.86098054 6.12004878,9.2467179 6.12004878,8.49170623 C6.12004878,7.73669455 6.71241463,7.12243191 7.4405122,7.12243191 C8.16860976,7.12243191 8.76097561,7.73669455 8.76097561,8.49170623 C8.76097561,9.2467179 8.16860976,9.86098054 7.4405122,9.86098054 Z" id="Shape"></path>
                <path d="M7.4405122,7.8693249 C7.10956098,7.8693249 6.84029268,8.1485214 6.84029268,8.49170623 C6.84029268,8.83489105 7.10953659,9.11408755 7.4405122,9.11408755 C7.77146341,9.11408755 8.04070732,8.83489105 8.04070732,8.49170623 C8.04070732,8.1485214 7.77146341,7.8693249 7.4405122,7.8693249 Z" id="Path"></path>
                <path d="M4.55953659,3.88598833 C4.22858537,3.88598833 3.95934146,4.16518482 3.95934146,4.50836965 C3.95934146,4.85155447 4.22858537,5.13077626 4.55953659,5.13077626 C4.8904878,5.13077626 5.1597561,4.85157977 5.1597561,4.50836965 C5.15973171,4.16521012 4.8904878,3.88598833 4.55953659,3.88598833 Z" id="Path"></path>
            </g>
        </g>
    </g>
</svg>