<?xml version="1.0" encoding="UTF-8"?>
<svg width="24px" height="24px" viewBox="0 0 24 24" version="1.1" xmlns="http://www.w3.org/2000/svg" xmlns:xlink="http://www.w3.org/1999/xlink">
    <!-- Generator: Sketch 61 (89581) - https://sketch.com -->
    <title>ic_print</title>
    <desc>Created with Sketch.</desc>
    <g id="Assets" stroke="none" stroke-width="1" fill="none" fill-rule="evenodd">
        <g id="Artboard" transform="translate(-648.000000, -48.000000)" fill="#FF7A01" fill-rule="nonzero">
            <g id="printing-tool" transform="translate(650.000000, 51.000000)">
                <path d="M19.2839916,8.16453759 C18.8319328,7.72343508 18.2901261,7.50300683 17.6583613,7.50300683 L16.8907983,7.50300683 L16.8907983,4.50619134 C16.8907983,4.19412301 16.8105462,3.85056492 16.6505042,3.47613212 C16.4905882,3.10153531 16.2987815,2.80500683 16.074916,2.58646469 L14.2512605,0.807047836 C14.027395,0.588710706 13.7235294,0.401330296 13.3398319,0.24515262 C12.9558824,0.0891389522 12.6042017,0.0111116173 12.2841176,0.0111116173 L4.22268908,0.0111116173 C3.90277311,0.0111116173 3.63079832,0.120300683 3.40684874,0.338842825 C3.18302521,0.557261959 3.07096639,0.822628702 3.07096639,1.13486105 L3.07096639,7.50300683 L2.30327731,7.50300683 C1.67147059,7.50300683 1.12966387,7.72355809 0.677731092,8.16453759 C0.225882353,8.60539408 0,9.13415945 0,9.75075171 L0,14.6207153 C0,14.7223189 0.0380252101,14.8096948 0.11394958,14.8841959 C0.189957983,14.958164 0.279957983,14.9951891 0.383823529,14.9951891 L3.07096639,14.9951891 L3.07096639,16.8681731 C3.07096639,17.1804875 3.18289916,17.4458542 3.40684874,17.6643144 C3.63079832,17.8826515 3.90277311,17.9920866 4.22268908,17.9920866 L15.7387815,17.9920866 C16.0585714,17.9920866 16.3309244,17.8826515 16.5546639,17.6643144 C16.7785294,17.4456902 16.8905462,17.1804875 16.8905462,16.8681731 L16.8905462,14.9951891 L19.5776471,14.9951891 C19.6814706,14.9951891 19.7714706,14.958164 19.847395,14.8841959 C19.9233193,14.8097358 19.9612606,14.7223189 19.9612606,14.6207153 L19.9612606,9.75075171 C19.9612606,9.13415945 19.7356303,8.60539408 19.2839916,8.16453759 Z M15.355,16.4936583 L4.60655462,16.4936583 L4.60655462,13.4969248 L15.355,13.4969248 L15.355,16.4936583 L15.355,16.4936583 Z M15.355,9.00151708 L4.60655462,9.00151708 L4.60655462,1.50953986 L12.2841176,1.50953986 L12.2841176,3.38248292 C12.2841176,3.69467426 12.3962605,3.959918 12.6198739,4.17850114 C12.8437395,4.39704328 13.1156303,4.50623235 13.4357143,4.50623235 L15.355,4.50623235 L15.355,9.00151708 L15.355,9.00151708 Z M18.1981513,10.277467 C18.0463025,10.4256492 17.8663025,10.5000273 17.6583613,10.5000273 C17.4504202,10.5000273 17.2704202,10.4256902 17.1185294,10.277467 C16.9667227,10.1294487 16.8907983,9.95363098 16.8907983,9.75071071 C16.8907983,9.54779043 16.9667227,9.37217768 17.1185294,9.22395444 C17.2703782,9.0756492 17.4503782,9.00147608 17.6583613,9.00147608 C17.8662605,9.00147608 18.0462605,9.0756492 18.1981513,9.22395444 C18.349958,9.37213667 18.4261765,9.54779043 18.4261765,9.75071071 C18.4261765,9.95363098 18.3501261,10.1294487 18.1981513,10.277467 Z" id="Shape"></path>
            </g>
        </g>
    </g>
</svg>