<?xml version="1.0" encoding="UTF-8"?>
<svg width="32px" height="41px" viewBox="0 0 32 41" version="1.1" xmlns="http://www.w3.org/2000/svg" xmlns:xlink="http://www.w3.org/1999/xlink">
    <!-- Generator: Sketch 61 (89581) - https://sketch.com -->
    <title>ic_pdf</title>
    <desc>Created with Sketch.</desc>
    <g id="Assets" stroke="none" stroke-width="1" fill="none" fill-rule="evenodd">
        <g id="Artboard" transform="translate(-528.000000, -126.000000)" fill-rule="nonzero">
            <g id="136522" transform="translate(529.000000, 127.000000)">
                <path d="M21.1261364,0 L1.33840909,0 C0.7875,0 0.340909091,0.456160714 0.340909091,1.34132143 L0.340909091,38.3035714 C0.340909091,38.5438393 0.7875,39 1.33840909,39 L28.6615909,39 C29.2125,39 29.6590909,38.5438393 29.6590909,38.3035714 L29.6590909,9.03825 C29.6590909,8.55353571 29.5956818,8.39753571 29.4838636,8.282625 L21.5502273,0.178982143 C21.4377273,0.0647678571 21.285,0 21.1261364,0 Z" id="Path" fill="#E9E9E0"></path>
                <polygon id="Path" fill="#D9D7CA" points="21.4772727 0.105160714 21.4772727 8.35714286 29.5561364 8.35714286"></polygon>
                <path d="M9.21409091,23.2077857 L9.21409091,23.2077857 C8.97681818,23.2077857 8.74909091,23.1290893 8.55477273,22.98075 C7.845,22.4368393 7.74954545,21.8316429 7.79454545,21.4193571 C7.91863636,20.2855714 9.29113636,19.0988571 11.8752273,17.8898571 C12.9006818,15.5944286 13.8763636,12.7662321 14.4579545,10.40325 C13.7775,8.89060714 13.1161364,6.92807143 13.5981818,5.776875 C13.7672727,5.37364286 13.9779545,5.06442857 14.3713636,4.93071429 C14.5268182,4.87778571 14.9195455,4.81092857 15.0640909,4.81092857 C15.4077273,4.81092857 15.7097727,5.26291071 15.9238636,5.54148214 C16.125,5.80333929 16.5811364,6.35839286 15.6695455,10.2785893 C16.5886364,12.2174464 17.8909091,14.1925179 19.1386364,15.5449821 C20.0325,15.3799286 20.8015909,15.2956607 21.4281818,15.2956607 C22.4959091,15.2956607 23.1429545,15.5498571 23.4068182,16.0735714 C23.625,16.50675 23.5356818,17.0130536 23.1409091,17.5778571 C22.7611364,18.120375 22.2375,18.4073036 21.6272727,18.4073036 C20.7981818,18.4073036 19.8327273,17.8724464 18.7561364,16.8159643 C16.8218182,17.2289464 14.5629545,17.9657679 12.7370455,18.7812857 C12.1670455,20.01675 11.6209091,21.0119464 11.1122727,21.7418036 C10.4134091,22.7411786 9.81068182,23.2077857 9.21409091,23.2077857 Z M11.0290909,19.6378929 C9.57204545,20.4743036 8.97818182,21.1616786 8.93522727,21.5488929 C8.92840909,21.6129643 8.91,21.7815 9.22909091,22.0308214 C9.33068182,21.9980893 9.92386364,21.7216071 11.0290909,19.6378929 Z M20.3270455,16.5443571 C20.8827273,16.9810179 21.0184091,17.2017857 21.3818182,17.2017857 C21.5413636,17.2017857 21.9961364,17.1948214 22.2068182,16.8946607 C22.3084091,16.7491071 22.3479545,16.6557857 22.3636364,16.6056429 C22.2797727,16.560375 22.1686364,16.4684464 21.5625,16.4684464 C21.2181818,16.4691429 20.7852273,16.4844643 20.3270455,16.5443571 Z M15.2338636,11.9604643 C14.7463636,13.6834286 14.1027273,15.5435893 13.4106818,17.22825 C14.8356818,16.6634464 16.3847727,16.170375 17.8397727,15.8214643 C16.9193182,14.7294643 15.9995455,13.3658571 15.2338636,11.9604643 Z M14.82,6.06728571 C14.7531818,6.09026786 13.9131818,7.29091071 14.8854545,8.307 C15.5325,6.83405357 14.8493182,6.05753571 14.82,6.06728571 Z" id="Shape" fill="#CC4B4C"></path>
                <path d="M28.6615909,39 L1.33840909,39 C0.7875,39 0.340909091,38.5438393 0.340909091,37.981125 L0.340909091,27.1607143 L29.6590909,27.1607143 L29.6590909,37.981125 C29.6590909,38.5438393 29.2125,39 28.6615909,39 Z" id="Path" fill="#CC4B4C"></path>
                <g id="Group" transform="translate(6.136364, 29.250000)" fill="#FFFFFF">
                    <path d="M1.62613636,7.66071429 L0.507272727,7.66071429 L0.507272727,0.6435 L2.48318182,0.6435 C2.775,0.6435 3.06409091,0.690857143 3.34977273,0.786267857 C3.63545455,0.881678571 3.89181818,1.02444643 4.11886364,1.21457143 C4.34590909,1.40469643 4.52931818,1.63521429 4.66909091,1.90473214 C4.80886364,2.17425 4.87909091,2.47719643 4.87909091,2.81426786 C4.87909091,3.17014286 4.81977273,3.49189286 4.70181818,3.78091071 C4.58386364,4.06992857 4.41886364,4.31298214 4.2075,4.509375 C3.99613636,4.70576786 3.74113636,4.85828571 3.44318182,4.96623214 C3.14522727,5.07417857 2.81522727,5.12780357 2.45522727,5.12780357 L1.62545455,5.12780357 L1.62545455,7.66071429 L1.62613636,7.66071429 Z M1.62613636,1.50985714 L1.62613636,4.29 L2.65159091,4.29 C2.78795455,4.29 2.92295455,4.26632143 3.05727273,4.21826786 C3.19090909,4.17091071 3.31363636,4.09291071 3.42545455,3.98496429 C3.53727273,3.87701786 3.62727273,3.72658929 3.69545455,3.53298214 C3.76363636,3.339375 3.79772727,3.09980357 3.79772727,2.81426786 C3.79772727,2.70005357 3.78204545,2.56773214 3.75136364,2.41939286 C3.72,2.27035714 3.65659091,2.12758929 3.56045455,1.99108929 C3.46363636,1.85458929 3.32863636,1.740375 3.15477273,1.64844643 C2.98090909,1.55651786 2.75045455,1.51055357 2.46477273,1.51055357 L1.62613636,1.51055357 L1.62613636,1.50985714 Z" id="Shape"></path>
                    <path d="M11.7402273,3.95710714 C11.7402273,4.53444643 11.6795455,5.02821429 11.5581818,5.43771429 C11.4368182,5.84721429 11.2834091,6.18985714 11.0965909,6.46633929 C10.9097727,6.74282143 10.7004545,6.96010714 10.4672727,7.11889286 C10.2340909,7.27767857 10.0090909,7.39607143 9.79159091,7.47616071 C9.57409091,7.55555357 9.375,7.60639286 9.195,7.62867857 C9.015,7.64957143 8.88136364,7.66071429 8.79409091,7.66071429 L6.19363636,7.66071429 L6.19363636,0.6435 L8.26295455,0.6435 C8.84113636,0.6435 9.34909091,0.737517857 9.78681818,0.924160714 C10.2245455,1.11080357 10.5886364,1.36082143 10.8777273,1.67142857 C11.1668182,1.98203571 11.3822727,2.33651786 11.5254545,2.73278571 C11.6686364,3.12975 11.7402273,3.53785714 11.7402273,3.95710714 Z M8.42181818,6.82291071 C9.18,6.82291071 9.72681818,6.57567857 10.0622727,6.08051786 C10.3977273,5.58535714 10.5654545,4.86803571 10.5654545,3.92855357 C10.5654545,3.63675 10.5313636,3.34773214 10.4631818,3.06219643 C10.3943182,2.77666071 10.2627273,2.51828571 10.0670455,2.286375 C9.87136364,2.05446429 9.60545455,1.867125 9.27,1.72435714 C8.93454545,1.58158929 8.49954545,1.50985714 7.965,1.50985714 L7.3125,1.50985714 L7.3125,6.82291071 L8.42181818,6.82291071 L8.42181818,6.82291071 Z" id="Shape"></path>
                    <polygon id="Path" points="14.4995455 1.50985714 14.4995455 3.71892857 17.3706818 3.71892857 17.3706818 4.499625 14.4995455 4.499625 14.4995455 7.66071429 13.3622727 7.66071429 13.3622727 0.6435 17.6590909 0.6435 17.6590909 1.50985714"></polygon>
                </g>
            </g>
        </g>
    </g>
</svg>