<?xml version="1.0" encoding="UTF-8"?>
<svg width="26px" height="26px" viewBox="0 0 26 26" version="1.1" xmlns="http://www.w3.org/2000/svg" xmlns:xlink="http://www.w3.org/1999/xlink">
    <!-- Generator: Sketch 61 (89581) - https://sketch.com -->
    <title>ic_Pedidos</title>
    <desc>Created with Sketch.</desc>
    <g id="Assets" stroke="none" stroke-width="1" fill="none" fill-rule="evenodd">
        <g id="Artboard" transform="translate(-760.000000, -56.000000)">
            <g id="Group-28" transform="translate(762.000000, 59.000000)">
                <circle id="Oval" fill="#FF7A01" cx="18" cy="5" r="5"></circle>
                <g id="box-(4)" transform="translate(0.000000, 3.000000)" fill="#1F1F1F" fill-rule="nonzero" stroke="#1F1F1F" stroke-width="0.5">
                    <path d="M1.42105263,18 L16.5789474,18 C17.3637731,18 18,17.3637731 18,16.5789474 L18,1.42105263 C18,0.636226934 17.3637731,0 16.5789474,0 L1.42105263,0 C0.636226934,0 0,0.636226934 0,1.42105263 L0,16.5789474 C0,17.3637731 0.636226934,18 1.42105263,18 Z M10.8947368,0.947368421 L10.8947368,8.16347368 L9.24394737,7.173 C9.09382145,7.08280432 8.90617855,7.08280432 8.75605263,7.173 L7.10526316,8.16347368 L7.10526316,0.947368421 L10.8947368,0.947368421 Z M0.947368421,1.42105263 C0.947368421,1.15944407 1.15944407,0.947368421 1.42105263,0.947368421 L6.15789474,0.947368421 L6.15789474,9 C6.1579272,9.17068888 6.24978955,9.32816027 6.39835572,9.41220067 C6.54692189,9.49624107 6.72921348,9.49385215 6.87552632,9.40594737 L9,8.13126316 L11.1244737,9.40594737 C11.2707865,9.49385215 11.4530781,9.49624107 11.6016443,9.41220067 C11.7502104,9.32816027 11.8420728,9.17068888 11.8421053,9 L11.8421053,0.947368421 L16.5789474,0.947368421 C16.8405559,0.947368421 17.0526316,1.15944407 17.0526316,1.42105263 L17.0526316,16.5789474 C17.0526316,16.8405559 16.8405559,17.0526316 16.5789474,17.0526316 L1.42105263,17.0526316 C1.15944407,17.0526316 0.947368421,16.8405559 0.947368421,16.5789474 L0.947368421,1.42105263 Z" id="Shape"></path>
                </g>
            </g>
        </g>
    </g>
</svg>