<?xml version="1.0" encoding="UTF-8"?>
<svg width="24px" height="24px" viewBox="0 0 24 24" version="1.1" xmlns="http://www.w3.org/2000/svg" xmlns:xlink="http://www.w3.org/1999/xlink">
    <!-- Generator: Sketch 61 (89581) - https://sketch.com -->
    <title>ic_pdf_orange</title>
    <desc>Created with Sketch.</desc>
    <g id="Assets" stroke="none" stroke-width="1" fill="none" fill-rule="evenodd">
        <g id="Artboard" transform="translate(-552.000000, -72.000000)" fill="#FF7A01" fill-rule="nonzero">
            <g id="pdf-file-format-symbol" transform="translate(554.000000, 73.000000)">
                <path d="M5.29165644,11.2685118 C5.29165644,10.6763085 4.87042945,10.3228711 4.12707566,10.3228711 C3.82384458,10.3228711 3.61840491,10.3514192 3.51067485,10.3800472 L3.51067485,12.2816697 C3.63803681,12.3098984 3.79460123,12.3195608 4.00932515,12.3195608 C4.80241309,12.3195608 5.29165644,11.9279129 5.29165644,11.2685118 Z" id="Path"></path>
                <path d="M9.89263804,10.3419564 C9.5595092,10.3419564 9.34470348,10.3705844 9.21701431,10.3992523 L9.21701431,14.6125118 C9.34445808,14.6416189 9.55002045,14.6416189 9.73603272,14.6416189 C11.0864213,14.6508421 11.9672802,13.9250817 11.9672802,12.3867586 C11.9771779,11.0486715 11.1744376,10.3419564 9.89263804,10.3419564 Z" id="Path"></path>
                <path d="M18.7086299,7.86645735 L18.1676892,7.86645735 L18.1676892,5.31845009 C18.1676892,5.30255898 18.1651125,5.28654809 18.1629448,5.27045735 C18.1620859,5.16928131 18.1291207,5.069902 18.0581595,4.99116515 L13.7147239,0.147491833 C13.7134151,0.146254083 13.7121472,0.145814882 13.7112474,0.14445735 C13.6853579,0.116228675 13.6551738,0.0927513612 13.623272,0.0724283122 C13.6138241,0.0662395644 13.6042945,0.0610490018 13.5943967,0.0556987296 C13.5667485,0.0409655172 13.5374233,0.0287477314 13.5072393,0.019923775 C13.4990593,0.0176878403 13.4916973,0.0144137931 13.4835174,0.0123375681 C13.4507157,0.00475136116 13.4166462,0 13.3821268,0 L2.70756646,0 C2.2201227,0 1.82413088,0.387016334 1.82413088,0.862471869 L1.82413088,7.86625771 L1.28331288,7.86625771 C0.58601227,7.86625771 0.0206134969,8.41797459 0.0206134969,9.09893648 L0.0206134969,15.5090817 C0.0206134969,16.1895644 0.58601227,16.7416407 1.28331288,16.7416407 L1.82417178,16.7416407 L1.82417178,21.1295826 C1.82417178,21.6049982 2.2201636,21.9920544 2.70760736,21.9920544 L17.2842945,21.9920544 C17.7712883,21.9920544 18.1677301,21.6050381 18.1677301,21.1295826 L18.1677301,16.7416407 L18.7086708,16.7416407 C19.4057669,16.7416407 19.9712883,16.1895644 19.9712883,15.5090817 L19.9712883,9.09913612 C19.9712883,8.41821416 19.405726,7.86645735 18.7086299,7.86645735 Z M2.70756646,0.862631579 L12.940409,0.862631579 L12.940409,5.27512886 C12.940409,5.51337568 13.1384049,5.70634483 13.3821268,5.70634483 L17.2842536,5.70634483 L17.2842536,7.86673684 L2.70756646,7.86673684 L2.70756646,0.862631579 Z M13.5525153,12.3384864 C13.5525153,13.5712849 13.0926789,14.4212995 12.4555828,14.9470635 C11.7614724,15.5107187 10.7042536,15.7781125 9.41280164,15.7781125 C8.6397955,15.7781125 8.09186094,15.7303194 7.7195092,15.682726 L7.7195092,9.35758621 C8.26752556,9.27178221 8.98241309,9.22398911 9.73603272,9.22398911 C10.9880573,9.22398911 11.8005726,9.44390926 12.4370143,9.91177858 C13.1217996,10.4086751 13.5525153,11.2015136 13.5525153,12.3384864 Z M2.03271984,15.7113938 L2.03271984,9.35758621 C2.49247444,9.28156443 3.13873211,9.22398911 4.04891616,9.22398911 C4.96879346,9.22398911 5.62466258,9.39599637 6.06490798,9.7401706 C6.48584867,10.0648203 6.76899796,10.5999673 6.76899796,11.2305808 C6.76899796,11.8613938 6.55427403,12.3963811 6.16249489,12.7592015 C5.65361963,13.2274701 4.9001227,13.4378076 4.0190593,13.4378076 C3.82364008,13.4378076 3.64687117,13.4281053 3.51047035,13.4089401 L3.51047035,15.7115535 L2.03271984,15.7115535 L2.03271984,15.7113938 Z M17.2842945,20.896127 L2.70756646,20.896127 L2.70756646,16.7416407 L17.2842945,16.7416407 L17.2842945,20.896127 L17.2842945,20.896127 Z M18.5643354,10.4660508 L16.028998,10.4660508 L16.028998,11.9374156 L18.3976278,11.9374156 L18.3976278,13.1222214 L16.028998,13.1222214 L16.028998,15.7114338 L14.5323517,15.7114338 L14.5323517,9.27178221 L18.5643354,9.27178221 L18.5643354,10.4660508 Z" id="Shape"></path>
            </g>
        </g>
    </g>
</svg>