<?xml version="1.0" encoding="UTF-8"?>
<svg width="26px" height="26px" viewBox="0 0 26 26" version="1.1" xmlns="http://www.w3.org/2000/svg" xmlns:xlink="http://www.w3.org/1999/xlink">
    <!-- Generator: Sketch 61 (89581) - https://sketch.com -->
    <title>ic_star</title>
    <desc>Created with Sketch.</desc>
    <g id="Assets" stroke="none" stroke-width="1" fill="none" fill-rule="evenodd">
        <g id="Artboard" transform="translate(-772.000000, -4.000000)" fill="#FFFFFF" fill-rule="nonzero" stroke="#FFFFFF" stroke-width="0.916666667">
            <g id="star-(1)" transform="translate(774.000000, 6.000000)">
                <path d="M21.49664,9.56164 C21.92916,9.14012 22.08184,8.52148 21.89528,7.9464 C21.70828,7.37132 21.2212,6.9608 20.6228,6.87368 L15.30232,6.1006 C15.07572,6.0676 14.87992,5.92548 14.77872,5.72 L12.40008,0.89892 C12.133,0.35728 11.59092,0.02068 10.9868,0.02068 C10.38312,0.02068 9.84104,0.35728 9.57396,0.89892 L7.19488,5.72 C7.09368,5.92548 6.89744,6.0676 6.67084,6.1006 L1.35036,6.87412 C0.7524,6.9608 0.26532,7.37132 0.07832,7.9464 C-0.10824,8.52148 0.04444,9.14012 0.47696,9.56164 L4.32652,13.31396 C4.49064,13.47412 4.56588,13.70468 4.52716,13.92996 L3.61856,19.22888 C3.51648,19.8242 3.75628,20.41424 4.24512,20.76976 C4.73352,21.12572 5.36932,21.17192 5.9048,20.88988 L10.66296,18.38804 C10.8658,18.28156 11.1078,18.28156 11.31064,18.38804 L16.06924,20.88988 C16.30156,21.0122 16.55324,21.07248 16.8036,21.07248 C17.12876,21.07248 17.4526,20.97084 17.72892,20.76976 C18.21776,20.41424 18.45756,19.8242 18.35548,19.22888 L17.44644,13.9304 C17.40772,13.70468 17.48296,13.47456 17.64708,13.3144 L21.49664,9.56164 Z M16.57964,14.07912 L17.48824,19.3776 C17.534,19.64424 17.4306,19.899 17.21148,20.05828 C16.99192,20.21712 16.71868,20.23648 16.47888,20.11152 L11.72028,17.60924 C11.49104,17.48912 11.23848,17.4284 10.9868,17.4284 C10.73512,17.4284 10.483,17.48912 10.25332,17.60968 L5.4956,20.11152 C5.25492,20.23648 4.98168,20.21712 4.76256,20.05828 C4.54344,19.899 4.44048,19.64468 4.4858,19.3776 L5.3944,14.07912 C5.48196,13.56784 5.31256,13.046 4.9412,12.68432 L1.0912,8.93156 C0.89716,8.74236 0.83116,8.47572 0.9152,8.21832 C0.9988,7.96048 1.20868,7.7836 1.47664,7.74444 L6.79668,6.97136 C7.31016,6.897 7.75412,6.57492 7.98336,6.1094 L10.36244,1.28832 C10.48212,1.04544 10.71576,0.90068 10.98636,0.90068 C11.2574,0.90068 11.4906,1.04544 11.61072,1.28832 L13.9898,6.1094 C14.21904,6.57492 14.66256,6.897 15.17604,6.97136 L20.49652,7.74444 C20.76448,7.7836 20.97436,7.96048 21.05796,8.21832 C21.14156,8.47572 21.076,8.74236 20.88196,8.93156 L17.0324,12.68388 C16.66104,13.046 16.49164,13.5674 16.57964,14.07912 Z" id="Shape"></path>
            </g>
        </g>
    </g>
</svg>