<?xml version="1.0" encoding="UTF-8"?>
<svg width="32px" height="32px" viewBox="0 0 32 32" version="1.1" xmlns="http://www.w3.org/2000/svg" xmlns:xlink="http://www.w3.org/1999/xlink">
    <!-- Generator: Sketch 61 (89581) - https://sketch.com -->
    <title>ic_slider</title>
    <desc>Created with Sketch.</desc>
    <g id="Assets" stroke="none" stroke-width="1" fill="none" fill-rule="evenodd">
        <g id="Artboard" transform="translate(-840.000000, -56.000000)">
            <g id="Group-3" transform="translate(843.000000, 62.000000)">
                <rect id="Rectangle" stroke="#FFFFFF" stroke-width="2" x="9" y="2" width="18" height="16" rx="2"></rect>
                <path d="M6,0 L14,0 L14,0 L14,20 L6,20 C3.790861,20 2,18.209139 2,16 L2,4 C2,1.790861 3.790861,4.05812251e-16 6,0 Z" id="Rectangle" stroke="#4D6A79" stroke-width="2" fill="#FFFFFF"></path>
                <g id="left-arrow" transform="translate(5.000000, 10.000000) rotate(-180.000000) translate(-5.000000, -10.000000) translate(0.000000, 5.500000)" fill="#4D6A79" fill-rule="nonzero">
                    <path d="M9.43788836,3.36878049 L9.45349811,3.37219512 L2.7619534,3.37219512 L4.86553063,1.26398374 C4.96853876,1.16105691 5.02504283,1.02162602 5.02504283,0.875284553 C5.02504283,0.728943089 4.96853876,0.590487805 4.86553063,0.487317073 L4.53821356,0.159837398 C4.43528673,0.0569105691 4.29813226,0 4.1518721,0 C4.00553063,0 3.86829486,0.056504065 3.76536803,0.159430894 L0.159433072,3.76504065 C0.0560997391,3.86837398 -0.000404325905,4.00601626 0,4.15243902 C-0.000404325905,4.2996748 0.0560997391,4.43739837 0.159433072,4.54056911 L3.76536803,8.14650407 C3.86829486,8.24934959 4.00544933,8.30593496 4.1518721,8.30593496 C4.29813226,8.30593496 4.43528673,8.24926829 4.53821356,8.14650407 L4.86553063,7.81902439 C4.96853876,7.71626016 5.02504283,7.57902439 5.02504283,7.43268293 C5.02504283,7.28642276 4.96853876,7.15642276 4.86553063,7.05357724 L2.73821356,4.93357724 L9.44536803,4.93357724 C9.74675015,4.93357724 10,4.67382114 10,4.37260163 L10,3.90943089 C10,3.60821138 9.73927047,3.36878049 9.43788836,3.36878049 Z" id="Path"></path>
                </g>
            </g>
        </g>
    </g>
</svg>