<?xml version="1.0" encoding="UTF-8"?>
<svg width="26px" height="26px" viewBox="0 0 26 26" version="1.1" xmlns="http://www.w3.org/2000/svg" xmlns:xlink="http://www.w3.org/1999/xlink">
    <!-- Generator: Sketch 61 (89581) - https://sketch.com -->
    <title>ic_share</title>
    <desc>Created with Sketch.</desc>
    <g id="Assets" stroke="none" stroke-width="1" fill="none" fill-rule="evenodd">
        <g id="Artboard" transform="translate(-804.000000, -4.000000)" fill="#FFFFFF" fill-rule="nonzero" stroke="#FFFFFF" stroke-width="0.6">
            <g id="share-(3)" transform="translate(807.000000, 6.000000)">
                <path d="M16.2021978,13.6 C14.9846154,13.6 13.8989011,14.1802198 13.2043956,15.0769231 L7.38901099,11.8285714 C7.52527473,11.4373626 7.6,11.0153846 7.6,10.5802198 C7.6,10.1406593 7.52527473,9.72307692 7.38461538,9.32747253 L13.1956044,6.08351648 C13.8857143,6.98461538 14.9758242,7.56923077 16.1978022,7.56923077 C18.2813187,7.56923077 19.9824176,5.87252747 19.9824176,3.78461538 C19.9824176,1.6967033 18.2857143,0 16.1978022,0 C14.1098901,0 12.4131868,1.6967033 12.4131868,3.78461538 C12.4131868,4.22417582 12.4879121,4.64615385 12.6285714,5.03736264 L6.82197802,8.28131868 C6.13186813,7.37582418 5.04175824,6.7956044 3.81978022,6.7956044 C1.73626374,6.7956044 0.0351648352,8.49230769 0.0351648352,10.5802198 C0.0351648352,12.6681319 1.73626374,14.3648352 3.82417582,14.3648352 C5.04615385,14.3648352 6.13626374,13.7802198 6.83076923,12.8747253 L12.6417582,16.1230769 C12.5010989,16.5186813 12.421978,16.9450549 12.421978,17.3846154 C12.421978,19.4681319 14.1186813,21.1692308 16.2065934,21.1692308 C18.2945055,21.1692308 19.9912088,19.4725275 19.9912088,17.3846154 C19.9912088,15.2967033 18.2901099,13.6 16.2021978,13.6 Z M16.2021978,1.19120879 C17.6351648,1.19120879 18.8,2.35604396 18.8,3.78901099 C18.8,5.22197802 17.6351648,6.38681319 16.2021978,6.38681319 C14.7692308,6.38681319 13.6043956,5.22197802 13.6043956,3.78901099 C13.6043956,2.35604396 14.7736264,1.19120879 16.2021978,1.19120879 Z M3.82417582,13.178022 C2.39120879,13.178022 1.22637363,12.0131868 1.22637363,10.5802198 C1.22637363,9.14725275 2.39120879,7.98241758 3.82417582,7.98241758 C5.25714286,7.98241758 6.42197802,9.14725275 6.42197802,10.5802198 C6.42197802,12.0131868 5.25274725,13.178022 3.82417582,13.178022 Z M16.2021978,19.978022 C14.7692308,19.978022 13.6043956,18.8131868 13.6043956,17.3802198 C13.6043956,15.9472527 14.7692308,14.7824176 16.2021978,14.7824176 C17.6351648,14.7824176 18.8,15.9472527 18.8,17.3802198 C18.8,18.8131868 17.6351648,19.978022 16.2021978,19.978022 Z" id="Shape"></path>
            </g>
        </g>
    </g>
</svg>