<?xml version="1.0" encoding="UTF-8"?>
<svg width="20px" height="20px" viewBox="0 0 20 20" version="1.1" xmlns="http://www.w3.org/2000/svg" xmlns:xlink="http://www.w3.org/1999/xlink">
    <!-- Generator: Sketch 61 (89581) - https://sketch.com -->
    <title>ic_twitter</title>
    <desc>Created with Sketch.</desc>
    <g id="Assets" stroke="none" stroke-width="1" fill="none" fill-rule="evenodd" opacity="0.4">
        <g id="Artboard" transform="translate(-77.000000, -326.000000)" fill="#FFFFFF" fill-rule="nonzero">
            <g id="004-twitter-logo-silhouette" transform="translate(78.000000, 329.000000)">
                <path d="M16.4571429,1.67332455 C15.8514286,1.95516755 15.2015059,2.14631024 14.518642,2.23164533 C15.2158924,1.79319465 15.7496202,1.09775038 16.0025815,0.271620858 C15.3485445,0.677654367 14.6266084,0.972486822 13.8573714,1.13231363 C13.2413849,0.442262801 12.3652034,0.0124529367 11.3933714,0.0124529367 C9.52892773,0.0124529367 8.01721008,1.59990587 8.01721008,3.55668298 C8.01721008,3.83420557 8.04703193,4.10526167 8.10463193,4.36445783 C5.29922689,4.21649096 2.81158992,2.80507342 1.14664874,0.660372741 C0.855610084,1.18305723 0.690043697,1.79209337 0.690043697,2.44221574 C0.690043697,3.67223268 1.28650756,4.75753012 2.19148908,5.3924887 C1.63821176,5.37306099 1.11784874,5.21323419 0.662292437,4.94757154 L0.662292437,4.99184864 C0.662292437,6.70888554 1.82642017,8.14190512 3.37000336,8.46805346 C3.08719328,8.54796687 2.78897479,8.59224398 2.48045714,8.59224398 C2.26245378,8.59224398 2.05163025,8.5695689 1.84492101,8.52636483 C2.27476975,9.9356363 3.52118319,10.960448 4.99794286,10.9885448 C3.84306555,11.9388648 2.38687731,12.5036521 0.805243697,12.5036521 C0.532732773,12.5036521 0.264309244,12.4863705 2.68907563e-05,12.4550546 C1.49426555,13.462613 3.26822185,14.0500753 5.17483025,14.0500753 C11.3851966,14.0500753 14.7798857,8.64840926 14.7798857,3.96381777 L14.7685647,3.50486634 C15.4318521,3.00807605 16.0056739,2.38390437 16.4571429,1.67332455 Z" id="Path"></path>
            </g>
        </g>
    </g>
</svg>