<?xml version="1.0" encoding="UTF-8"?>
<svg width="24px" height="24px" viewBox="0 0 24 24" version="1.1" xmlns="http://www.w3.org/2000/svg" xmlns:xlink="http://www.w3.org/1999/xlink">
    <!-- Generator: Sketch 61 (89581) - https://sketch.com -->
    <title>ic_xls</title>
    <desc>Created with Sketch.</desc>
    <g id="Assets" stroke="none" stroke-width="1" fill="none" fill-rule="evenodd">
        <g id="Artboard" transform="translate(-576.000000, -72.000000)" fill="#FF7A01" fill-rule="nonzero">
            <g id="xls-file-format-symbol-copy" transform="translate(579.000000, 73.000000)">
                <path d="M17.7734315,7.86645735 L17.2595378,7.86645735 L17.2595378,5.31845009 C17.2595378,5.30255898 17.25709,5.28654809 17.2552249,5.27033757 C17.254409,5.16928131 17.2228589,5.06986207 17.1554458,4.99116515 L13.0289877,0.147491833 C13.0277444,0.146254083 13.0265399,0.145814882 13.0256851,0.14445735 C13.00109,0.116228675 12.9724151,0.0927513612 12.9421084,0.0724283122 C12.9331329,0.0662395644 12.9240798,0.0610490018 12.9146769,0.0555789474 C12.888411,0.0409655172 12.8605521,0.0286279492 12.8318773,0.0198039927 C12.8241063,0.0176878403 12.8171125,0.0144137931 12.8093415,0.0122976407 C12.77818,0.00475136116 12.7458139,0 12.7130204,0 L2.57218814,0 C2.10911656,0 1.73292434,0.387016334 1.73292434,0.862471869 L1.73292434,7.86625771 L1.21914724,7.86625771 C0.556711656,7.86625771 0.0195828221,8.41797459 0.0195828221,9.09893648 L0.0195828221,15.5090817 C0.0195828221,16.1893648 0.556711656,16.7416407 1.21914724,16.7416407 L1.73296319,16.7416407 L1.73296319,21.1295826 C1.73296319,21.6049982 2.10915542,21.9920544 2.57222699,21.9920544 L16.4200798,21.9920544 C16.8827239,21.9920544 17.2593436,21.6050381 17.2593436,21.1295826 L17.2593436,16.7416407 L17.7732372,16.7416407 C18.4354785,16.7416407 18.9727239,16.1895644 18.9727239,15.5090817 L18.9727239,9.09913612 C18.9727239,8.41797459 18.4358282,7.86645735 17.7734315,7.86645735 Z M2.57218814,0.862471869 L12.2933885,0.862471869 L12.2933885,5.27484936 C12.2933885,5.51309619 12.4814847,5.70606534 12.7130204,5.70606534 L16.4200409,5.70606534 L16.4200409,7.86645735 L2.57218814,7.86645735 L2.57218814,0.862471869 Z M11.9891166,14.1480363 L11.9891166,15.3987223 L7.98501227,15.3987223 L7.98501227,8.81213793 L9.44051329,8.81213793 L9.44051329,14.1480363 L11.9891166,14.1480363 Z M1.68047035,15.3985227 L3.53501022,12.0662613 L1.74695092,8.81213793 L3.41121881,8.81213793 L3.97224335,10.0139129 C4.16259305,10.4143848 4.30530675,10.7372377 4.45753988,11.1084828 L4.47630675,11.1084828 C4.62885072,10.6880871 4.75221472,10.3949002 4.91377301,10.0139129 L5.45595297,8.81213793 L7.11070143,8.81213793 L5.30360327,12.0272922 L7.20597342,15.3986824 L5.53206953,15.3986824 L4.95200613,14.2065299 C4.714409,13.7470853 4.5620593,13.4051869 4.38146217,13.0240799 L4.36242331,13.0240799 C4.22911247,13.4053866 4.06778732,13.7475245 3.86811247,14.2065299 L3.33537423,15.3986824 L1.68047035,15.3986824 L1.68047035,15.3985227 Z M16.4200798,20.896127 L2.57218814,20.896127 L2.57218814,16.7416407 L16.4200798,16.7416407 L16.4200798,20.896127 L16.4200798,20.896127 Z M14.4136953,15.496824 C13.6817873,15.496824 12.9587382,15.30102 12.5976994,15.0959528 L12.8921411,13.8646316 C13.2822434,14.0696987 13.8813845,14.2752051 14.4997587,14.2752051 C15.1656912,14.2752051 15.5172883,13.9917604 15.5172883,13.5618221 C15.5172883,13.1512486 15.2130164,12.9167151 14.4426033,12.6332704 C13.3775542,12.2519637 12.68318,11.6461851 12.68318,10.6880871 C12.68318,9.56413067 13.5961902,8.70433394 15.1087689,8.70433394 C15.8312352,8.70433394 16.3639734,8.86112886 16.7442843,9.0366098 L16.4209346,10.238784 C16.1642209,10.1115753 15.7075215,9.92599274 15.0800941,9.92599274 C14.4525112,9.92599274 14.1482393,10.21898 14.1482393,10.5613575 C14.1482393,10.9815935 14.5092393,11.1674555 15.3368466,11.4899891 C16.4684928,11.9199673 17.0012311,12.5255463 17.0012311,13.4540581 C17.000726,14.5586098 16.1735849,15.496824 14.4136953,15.496824 Z" id="Shape"></path>
            </g>
        </g>
    </g>
</svg>