<?xml version="1.0" encoding="UTF-8"?>
<svg width="16px" height="16px" viewBox="0 0 16 16" version="1.1" xmlns="http://www.w3.org/2000/svg" xmlns:xlink="http://www.w3.org/1999/xlink">
    <!-- Generator: Sketch 61 (89581) - https://sketch.com -->
    <title>list (2)</title>
    <desc>Created with Sketch.</desc>
    <g id="Assets" stroke="none" stroke-width="1" fill="none" fill-rule="evenodd" opacity="0.3">
        <g id="Artboard" transform="translate(-484.000000, -51.000000)" fill="#000000" fill-rule="nonzero">
            <g id="list-(2)" transform="translate(485.000000, 54.000000)">
                <path d="M13.1104262,10.7352826 L3.88327869,10.7352826 C3.50298361,10.7352826 3.1947541,10.4141304 3.1947541,10.0178913 C3.1947541,9.62165217 3.50298361,9.3005 3.88327869,9.3005 L13.1101967,9.3005 C13.4904918,9.3005 13.7987213,9.62165217 13.7987213,10.0178913 C13.7987213,10.4141304 13.4907213,10.7352826 13.1104262,10.7352826 Z" id="Path"></path>
                <path d="M13.1104262,6.23221739 L3.88327869,6.23221739 C3.50298361,6.23221739 3.1947541,5.91106522 3.1947541,5.51482609 C3.1947541,5.11858696 3.50298361,4.79743478 3.88327869,4.79743478 L13.1101967,4.79743478 C13.4904918,4.79743478 13.7987214,5.11858696 13.7987214,5.51482609 C13.7989508,5.91106522 13.4907213,6.23221739 13.1104262,6.23221739 Z" id="Path"></path>
                <path d="M13.1104262,1.72915217 L3.88327869,1.72915217 C3.50298361,1.72915217 3.1947541,1.408 3.1947541,1.01176087 C3.1947541,0.615521739 3.50298361,0.294369565 3.88327869,0.294369565 L13.1101967,0.294369565 C13.4904918,0.294369565 13.7987213,0.615521739 13.7987213,1.01176087 C13.7987213,1.408 13.4907213,1.72915217 13.1104262,1.72915217 Z" id="Path"></path>
                <ellipse id="Oval" cx="0.924688525" cy="1.06723913" rx="1" ry="1"></ellipse>
                <ellipse id="Oval" cx="0.924688525" cy="5.51482609" rx="1" ry="1"></ellipse>
                <ellipse id="Oval" cx="0.924688525" cy="9.96241304" rx="1" ry="1"></ellipse>
            </g>
        </g>
    </g>
</svg>