<?xml version="1.0" encoding="UTF-8"?>
<svg width="24px" height="24px" viewBox="0 0 24 24" version="1.1" xmlns="http://www.w3.org/2000/svg" xmlns:xlink="http://www.w3.org/1999/xlink">
    <!-- Generator: Sketch 61 (89581) - https://sketch.com -->
    <title>shopping-cart-black-shape</title>
    <desc>Created with Sketch.</desc>
    <g id="Assets" stroke="none" stroke-width="1" fill="none" fill-rule="evenodd" opacity="0.601723">
        <g id="Artboard" transform="translate(-274.000000, -21.000000)" fill="#000000" fill-rule="nonzero">
            <g id="shopping-cart-black-shape" transform="translate(277.000000, 26.000000)">
                <path d="M13.8193866,13.6227543 C13.8193866,13.9983871 13.9547269,14.3188586 14.2244244,14.5843176 C14.4941218,14.8500372 14.8199748,14.9829901 15.2017563,14.9829901 C15.5829706,14.9829901 15.9088235,14.8500372 16.178521,14.5843176 C16.4484832,14.3188586 16.5835588,13.9983871 16.5835588,13.6227543 C16.5835588,13.2471216 16.4486345,12.9266501 16.178521,12.6609305 C15.9088235,12.3954715 15.5829706,12.2625186 15.2017563,12.2625186 C14.8199748,12.2625186 14.4941218,12.3954715 14.2244244,12.6609305 C13.9547269,12.9266501 13.8193866,13.2471216 13.8193866,13.6227543 Z" id="Path"></path>
                <path d="M17.7601765,1.58225806 C17.6233613,1.44763027 17.4615126,1.38029777 17.2743277,1.38029777 L4.30782353,1.38029777 C4.30052521,1.33075682 4.28434034,1.24049628 4.25915546,1.10944169 C4.23397059,0.978312655 4.21423109,0.873870968 4.19982353,0.795856079 C4.18534034,0.718176179 4.1584916,0.624230769 4.11882353,0.51442928 C4.07923109,0.40455335 4.03245378,0.317679901 3.9784916,0.254069479 C3.92460504,0.190124069 3.85264286,0.135372208 3.76264286,0.0891811414 C3.67271849,0.0432878412 3.57008824,0.0202109181 3.45497899,0.0202109181 L0.691109244,0.0202109181 C0.503848739,0.0202109181 0.34192437,0.0876550868 0.205184874,0.222096774 C0.068407563,0.356687345 0,0.51617866 0,0.700347395 C0,0.884516129 0.068407563,1.043933 0.205184874,1.17852357 C0.342037815,1.31315136 0.504,1.38040943 0.691109244,1.38040943 L2.89334874,1.38040943 L4.80422269,10.1264144 C4.78992857,10.1547022 4.71615126,10.2891811 4.58292857,10.5301861 C4.44978151,10.7711911 4.34363445,10.981861 4.26452521,11.1624938 C4.18537815,11.3433499 4.14578571,11.4831886 4.14578571,11.5823077 C4.14578571,11.7664764 4.21419328,11.9259305 4.35089496,12.0607444 C4.48782353,12.1949628 4.64971008,12.2625186 4.83685714,12.2625186 L5.52781513,12.2625186 L15.2014916,12.2625186 L15.8920336,12.2625186 C16.0791429,12.2625186 16.2411429,12.195 16.3778445,12.0607444 C16.5147353,11.9259677 16.5830672,11.7665136 16.5830672,11.5823077 C16.5830672,11.3981017 16.5147353,11.2386476 16.3778445,11.1041315 C16.2411807,10.9696154 16.0791807,10.9020968 15.8920336,10.9020968 L5.95951261,10.9020968 C6.13232773,10.5619727 6.21869748,10.3355211 6.21869748,10.2221464 C6.21869748,10.1510918 6.20969748,10.0731141 6.19165966,9.98828784 C6.17362185,9.90346154 6.15206723,9.80944169 6.12688235,9.70656328 C6.10165966,9.60413151 6.08555042,9.52794045 6.07836555,9.47828784 L17.3501849,8.18184864 C17.5299202,8.16044665 17.6775882,8.08455335 17.7927353,7.95331266 C17.9079202,7.82236973 17.9653613,7.67184864 17.9653613,7.50171216 L17.9653613,2.06065757 C17.9653613,1.87648883 17.8970672,1.71707196 17.7601765,1.58225806 Z" id="Path"></path>
                <path d="M4.1457479,13.6227543 C4.1457479,13.9983871 4.28063445,14.3188586 4.55059664,14.5843176 C4.82063445,14.8500372 5.14618487,14.9829901 5.52777731,14.9829901 C5.90914286,14.9829901 6.23488235,14.8500372 6.50473109,14.5843176 C6.77469328,14.3188586 6.90973109,13.9983871 6.90973109,13.6227543 C6.90973109,13.2471216 6.77480672,12.9266501 6.50473109,12.6609305 C6.23484454,12.3954715 5.90914286,12.2625186 5.52777731,12.2625186 C5.14622269,12.2625186 4.82048319,12.3954715 4.55059664,12.6609305 C4.28078571,12.9266501 4.1457479,13.2471216 4.1457479,13.6227543 Z" id="Path"></path>
            </g>
        </g>
    </g>
</svg>