<?xml version="1.0" encoding="UTF-8"?>
<svg width="24px" height="18px" viewBox="0 0 24 18" version="1.1" xmlns="http://www.w3.org/2000/svg" xmlns:xlink="http://www.w3.org/1999/xlink">
    <!-- Generator: Sketch 61 (89581) - https://sketch.com -->
    <title>sports-car</title>
    <desc>Created with Sketch.</desc>
    <g id="Assets" stroke="none" stroke-width="1" fill="none" fill-rule="evenodd">
        <g id="Artboard" transform="translate(-485.000000, -77.000000)" fill="#FFFFFF" fill-rule="nonzero">
            <g id="sports-car" transform="translate(485.000000, 77.000000)">
                <path d="M23.2986,5.74758621 C23.184,5.60296552 23.013,5.51855172 22.8336,5.51855172 L20.553,5.51855172 C19.9902,3.98296552 19.257,2.47841379 18.4236,1.91048276 C15.5406,-0.0515172414 7.8936,-0.0515172414 5.0106,1.91048276 C4.1766,2.47903448 3.4464,3.98544828 2.8806,5.51855172 L0.6,5.51855172 C0.4188,5.51855172 0.2484,5.60296552 0.135,5.74758621 C0.021,5.89158621 -0.0246,6.08213793 0.0126,6.26524138 L0.3504,7.95848276 C0.408,8.24710345 0.654,8.45317241 0.9378,8.45317241 L1.6134,8.45317241 C0.9612,9.23151724 0.645,10.2115862 0.6408,11.1922759 C0.6366,12.4038621 1.0812,13.4987586 1.8942,14.2733793 C1.9032,14.2814483 1.9122,14.2870345 1.9206,14.2951034 L1.9206,16.6642759 C1.9206,17.1775862 2.3238,17.5953103 2.8206,17.5953103 L4.9242,17.5953103 C5.421,17.5953103 5.8242,17.1775862 5.8242,16.6642759 L5.8242,15.7121379 L17.6088,15.7121379 L17.6088,16.6642759 C17.6088,17.1775862 18.012,17.5953103 18.5088,17.5953103 L20.6124,17.5953103 C21.108,17.5953103 21.5124,17.1775862 21.5124,16.6642759 L21.5124,14.3416552 C22.3752,13.5242069 22.7874,12.3995172 22.7928,11.2766897 C22.7964,10.2624828 22.4658,9.24641379 21.7752,8.45193103 L22.4958,8.45193103 C22.7808,8.45193103 23.0268,8.24586207 23.0832,7.95662069 L23.4216,6.264 C23.4564,6.08213793 23.4126,5.89282759 23.2986,5.74758621 Z M5.9988,3.46531034 C8.2968,1.90055172 15.1362,1.90055172 17.433,3.46531034 C17.8794,3.7682069 18.4536,4.99282759 18.9798,6.49241379 L4.4532,6.49241379 C4.9782,4.99344828 5.5524,3.76944828 5.9988,3.46531034 Z M3.3072,11.4256552 C3.3072,10.413931 4.1004,9.59462069 5.0778,9.59462069 C6.0564,9.59462069 6.8484,10.413931 6.8484,11.4256552 C6.8484,12.4373793 6.0564,13.2573103 5.0778,13.2573103 C4.1004,13.2573103 3.3072,12.4373793 3.3072,11.4256552 Z M18.3786,13.2573103 C17.4012,13.2573103 16.608,12.4373793 16.608,11.4256552 C16.608,10.413931 17.4012,9.59462069 18.3786,9.59462069 C19.3572,9.59462069 20.1492,10.413931 20.1492,11.4256552 C20.1492,12.4373793 19.356,13.2573103 18.3786,13.2573103 Z" id="Shape"></path>
            </g>
        </g>
    </g>
</svg>